<?xml version="1.0" encoding="UTF-8"?>
<svg id="Layer_1" data-name="Layer 1" xmlns="http://www.w3.org/2000/svg" viewBox="0 0 1354.18 587.86">
  <g>
    <path d="M319.12,575.38c-82.67,28.44-172.21,6.7-237.11-49.34-34.63-29.9-60.3-69.23-74.05-112.83C3.46,398.93,0,385.01,0,369.98l.05-141.89c0-18.1,4.05-34.96,9.64-51.93,16.48-50,48.1-93.24,89.86-125.11C173.56-5.43,270.74-17.33,353.64,26.86c53.69,28.62,95.28,75.36,117.7,131.87,8.58,21.62,13.47,43.24,15.01,66.53l-.2,139.71c-.02,17.23-3.89,33.07-9.08,49.34-9.19,28.83-22.92,55.52-41.61,79.23-29.7,37.66-70.64,66.12-116.34,81.84ZM471.73,403.3c3.17-11.67,5.8-23.01,5.78-35.3l-.18-140.79c-.04-27.19-7.96-52.92-19.27-77.54-21.25-46.26-56.99-85.16-101.02-110.6C304.53,8.73,242.18,1.65,184.23,18.5c-22.05,6.41-42,14.87-61.4,27.23-36.76,23.42-67.44,55.41-88.15,93.93-15.06,28.01-25.84,58.17-25.92,90.27l-.35,141.08c2.67,31.07,12.46,59.86,27.87,86.73,34.62,60.37,94.02,102.89,162.42,116.8,121.48,24.71,240.8-52.65,273.03-171.24Z"/>
    <path d="M201.97,566.9c-46.81-9.31-89.18-31.75-122.23-65.26-35.22-35.71-60.79-85.09-64.14-135.54l.36-132.26c.08-29.98,9.43-58.47,23.07-84.93,18.35-35.6,44.77-65.46,77.42-88.7,36.22-25.79,79.24-40.43,123.86-41.88,60.97-1.97,118.81,22.94,161.88,65.67,38.24,37.93,68.1,95.26,68.1,149.83v127.5c0,18.72-3.92,36.06-9.97,53.61-36.55,105.89-146.81,174.16-258.34,151.96ZM165.05,551.92c58.85,22.63,123.02,19.21,178.78-9.04,53.95-27.34,95.3-75.57,114.02-133.2,4.58-14.11,8.12-27.94,8.12-42.82l.05-134.01c0-19.52-3.95-37.55-10.23-55.91-19.02-55.51-58.68-102.41-110.68-129.79-72.48-38.16-160.62-30.33-226.9,16.93-34.51,24.6-62.41,57.5-80.06,96.21-10.33,22.66-17.87,46.47-17.87,71.57v136.24c0,19.68,6.13,38,13.2,56.05,10.48,26.74,26.2,50.2,45.85,71.18,23.68,25.28,52.96,43.99,85.73,56.59Z"/>
    <path d="M106.99,315.45l-5.07,1.54c-1.36.41-3.15-2.74-3.57-4.72l8.38-.22,11.52-10.97c4.75-4.52,9.2-9.29,13.18-14.01l-2.85-1.07,12.38-8.34c3.07-2.07,6.52-4.1,10.11-5.52-12.37-4.77-15.4-15.73-27.89-7.61l-6.35,12.09c-2.83.1-4.25.44-6.86,1.18-1.82-1.2-1.48-6.06.62-8.22l6.19-6.36c-.17-.69-1.22-2.83-.57-3.08l3.17-1.22c5.01-1.92,9.81-3.3,15-1.39-2.89-5.64-3.43-11.67-4.34-17.87-5.54-11.03-24.59-11.3-37.48-5.45-7.77,3.52-15.58,3.32-18.35-3.79-9.11,2.58-13.14-6.08-18.72-15.09l5.26.72c4.63.63,8.08,3.92,10.84,7.5l1.49,1.93c.34.44,1.1-.24,2.73-1.16.69-.1,1.24,3.06,1.12,4.79,8.73,7.27,17.41-3.66,29.54-4.44-9.23-5.55-17.22-14.94-10.4-24.11-.15,9.55,7.92,19.15,16.93,21.32l17.47,4.21c6.41-3.33,10.28-8.9,18.33-11.8-2.67-2-6.87-5.27-8.42-8.31-10.46-20.6-27.26-8.56-38.54-14.22l-12.68-6.36-5.06-.78,5.35-5.2c5.68,3.99,12.01,7.79,19.01,7.76l19.01-.07c-.35-.5-.38-2.64.17-4.17l3.99,5.74c4.93,2.94,9.87,6.66,13.06,11.7,5.51,8.71,13.99,12.19,24.45,11.03l12.24-.07c-4.81-3.63-9.16-7.71-13.24-12.29-5.42-6.09-6.88-13.57-8.47-21.53-3.43-17.18,4.32-20.9,3.12-24.45-1.47-4.33-11.62-3.84-19.85-8.49,3.82-1.14,5.22-1.1,8.99-1.38-8.92-6.53-15.88.83-20.53-6.21l8.87-2.81c16.28,3.04,32.31,19.33,28.83,35.4-1.94,8.94-1.48,16.83,4.32,24.36,11.18,14.51,24.48,16.04,36.36,23.96,13.72,9.14,20.02,24.5,21.11,40.85l1.62-36.45c.48-10.71-3.54-20.31-9.47-28.23.76-.89,1.32-1.39,1.05-1.68-.37-.39-2.22-1.87-2.48-2.47l-8.36-19.3,1.46-.32,7.96,14.54c-2.36-7.75-6.14-14.54-10.42-21.29-4.61-7.27-12.61-12.38-21.48-12.47,3.03,1.58,5.67,2.7,8.58,5.47l-25.42-6.13c-1.81-.44-5.65,3.49-6.84-2.29l7.32-2.21c-3.68-3.9-7.38-8.74-10.62-13.7-5.12-2.79-10.14-6.82-11.8-12.61.34-2.14-.45-3.78-1.86-5.12-4.27-4.03-3.41-9.74-3.04-14.9l.62-8.59,6.34,6.96c5.38,5.9,7.17,13.42,2.24,20.83l5.53,5.54c-.05-2.29-.17-2.88.91-5.24l5.44,12.46,1.96-5.41c4.88,2.84,9.62,6.77,7.69,13.76-2.84-1.48-4.94-3.8-7.8-7.09,1.55,7.77,7.77,12.82,16.25,12.39,5.6-.29,10.64,1.55,16.45,3.26l-6.72-12.01c-2.24-4-1.8-9.85-1.41-14.91,4.63,4.46,3.94,9.69,5.86,15.47l-.22-15.23c-.06-4.52-2.07-9.12-4.19-12.94l-3.11-5.61c-3.96,1.31-8.66-.07-10.81-3.57l2.06-3c-7.65-.93-10.18-8.52-8.56-15.68l2.21-9.78,8.12,8.23c7.17,7.27-1.76,16.44,5.89,20.62l-1.83-5.03c-.36-1,2.04-2.96,3.17-3.5,3.68,1.92,3.76,7.59.78,10.39,1.99.77,5.28,2.36,5.8,3.89l3.37,9.84c2.04-5.97,10.1-12.6,17.39-8.21-7.48.88-13.94,4.91-14.41,12.82l-1.09,18.32c-.26,4.44-.45,7.55,3.63,10.65,5.78,4.39,11.23,9.85,14.72,16.82,6,12,10.19,24.52,14.51,37.04l-.25-34.59.14-45.14c.02-6.94-4.3-13.02-8.79-17.72-4.26-4.45-6.68-10.31-10.29-14.78-2.21-2.74-6.82-2.54-8.37-8.57l-2.68-10.43,10.31,6.38c3.74,2.31,3.15,6.49,4.08,10.51l6.21,8.49,1.92-7.41c3.2.86,3.57,3.71,2.72,6.03-3.04,8.33,9.05,9.49,13.13,22.34,1.73-5.57,6.36-9.76,10.31-14.95l7.07-9.31c3.89-5.11,2.37-8.48,3.79-7.3l2.35,1.95c-1.76-6.36.07-11.77,5.24-15.91l6.47-5.18-.57,12.17c-.29,6.16-5.2,10.42-10.84,10.62.74,2.38.58,4.8-.59,5.14-.27.08-.82-1.89-.9-2.15-.08-.28-.31-.43-.45-.2l-1.03,1.69-3.48,8.06c2.52-.39,4.41-.26,5.7,1.06-8.91,2.98-14.28,7.86-17.16,16.27-.98,2.86-2.9,6.8-3.1,9.96-1,15.92.38,31.04.21,46.87l-.18,16.5c3.33-18.33,13.68-35.59,30.87-45.2,2.63-5.69,3.69-14.44.97-20.53-2.19-4.91-3.89-9.16-4.99-14.47l-7.88-4.99c6.07-.1,14,3.1,16.56,9.73,1.12-4.03,2.99-7.71,6.85-9.36-1.16,3.25-4.68,7.63-4.05,10.71,1.89,9.31,2.59,18-1.54,27.51,2.88-.49,5.36-.92,7.84-.94-9.57,7.42-19.42,12.89-24.9,23.15l-4,7.51c-9.37,17.56-11.62,38.1-10.33,58.08l1.55,24.14c.25-10.56,2.25-19.5,8.07-28.05,13.08-19.19,29.51-21.03,34.63-28.58,6.75-9.95.85-19.7,4.31-23.01-1.76-1.06-5.17-4.13-5.64-6.19l-1.94-8.48,8.73,3.51,3.72-4.19c1.93,5.78,3.09,10.61.24,17.36l-5.1-9.74c-.92,3.63,1.88,6.75,3.68,10.05,3.29,6.04,2.25,13.45-.44,19.47l7.92-5.4c9.76-6.65,14.26-16.88,10.3-28.28-1.2-3.46.16-8.34,1.97-11.94,6.62,10.72-1.53,17.38,3.66,19.82,3.44-4.6-4.26-11.99,4.67-16.91,2.9,7.24.43,14.09-2.01,20.84-1.48,4.1-2,9.32-5.02,12.6-8.82,9.56-17.84,10.98-23.96,18.45,14.18-1.44,27.06,5.3,34.84-3.9l10.05-11.89c5.03-5.95,4.45-11.37,2.21-19.52,2.21,1.52,3.05,3,5.05,6.32l3.01-3.03c-3.71-2.89-4.79-5.96-2.19-9.35.89-1.16,2.43-3.79,1.77-4.9l-3.19-5.31c4.67.66,6.04,5.02,7.76,8.95,4.24,9.69-6.62,10.4-7.43,22.07,7.79-3.5,13.85-1.75,22.75-1.11l-9.74-4.43c.44-.42,3.45-1.49,4.75-1.44l10.9.45c5.18.21,6.71-9.42,7.87-7.75,3.86,5.51,5.57,3.25,7.42,6.42-.92,2.4-5.04,1.9-6.77,1.1-3.39,5.81-6.29,8.32-13.4,6.14-1.97,2.87-6.41,4.74-10.5,4.25-14.91-1.79-19.06,14.18-22.12,16.51l-7.2,5.49c7.25,2.92,12.71,6.35,15.11,12.76,1.09-1.74,2.02-2.49,3.25-2.56,6.23-.37,11.09-1.72,16.91-2.93,5.52-1.14,10.98-2.25,14.86-7.34,6.17-8.11,6.32-15.71,12.12-15.91,1.67-.06,5.14,1.94,5.16,3.6-.18,4.77-4.96,7.88-8.39,7.57-2.19,6-6.24,11.32-12.74,14.08,12.83-.13,18.84,9.47,26.33,5.41,2.28-1.24,4.27-4.57,7.17-8.01.03,4.97-4.21,10.66-8.91,12.99l-5.76,2.85-3.21-4.34c-14.11-5.83-29.59-2.27-44.57.87,2.6,6.53.28,11-1.71,16.38-3.55,9.56-10.91,16.7-20.41,19.98,5.31,1.69,9.91,3.26,13.46,6.65l15.18,14.48c4.58,4.37,11.97,3.28,17.63,3.87,4.44.47,6.8.63,11.13-1.48l10.4,1.01c-4.64,5.51-10.68,5.27-16.39,3.26-4.98,1.34-10.13,2.71-15.41,1.95l7.79,7.91c3.74.14,6.1,1.36,7.53,5.19,5.04-3.27,9.4-1.66,13.1,2.13l7.56,7.76-9.32-.51c-8.81-.49-11-8.05-11.86-7.29l-1.88,1.67-8.67-8.19-11.67-9.69c.42,4.21.7,6.44-.53,9.61-1.56-4.01-2.08-8.72-4.63-11.82-4.48-5.44-9.31-9.77-14.99-13.89-19.43-14.1-46.78-9.6-60.21,10.68l-3.86,8.46c-3.24,7.09-3.86,14.74-3.97,22.52-.19,14.49.64,28.16,3.16,42.41,5.58,31.46,22.33,46.66,52.53,54.05,11.62,2.84,22.64,2.87,34.18-.34,10.14-2.83,21.19-10.16,19.49-17.31-.5-2.08-2.34-3.89-4.71-6.29,2.46-.71,6.51-.6,9,.57,2.1.98,4.7,4.42,4.43,7.33-1.86,19.77-32.53,26.13-52.92,24.98l14.28-4.29c-8.24-.38-15.88.38-24.44,1.23-7.21.72-14.19-2.67-20.71-5.51-13.88-6.06-25.52-15.41-32.65-28.89-6.92-13.09-8.77-27.26-10.08-41.95l-1.47-16.43c-.55-6.14-.51-12.9.09-19.12,1.77-18.55,16.51-41.84,34.26-42.24l14.66-.33c-16.7-3.9-25.6-1.45-37.03,11.61-16.5,18.87-14.47,41.69-13.68,66.52.34,10.62,2.29,21.11,4.73,31.34,6.02,25.21,25.33,40.68,49.34,48.85l9.3,4.08-4.11,2.64,5.62.32,11.83,9.98c-3.64.91-7.9,1.64-10.37.45l-23.97-11.56,12.54,12.16c5.25,5.09,7.7,11.63,6.74,18.81l-7.9-7.15c-5.11-4.62-6.32-15.78-17.56-23.62l-11.98-8.35c3.14,4.7,6.94,7.88,8.97,12.09,3.22,6.71,2.17,13.89-3.66,18.01l-1.89-9.38c-1.92-9.53-6.09-16.88-13.18-23.49-.82-1.61-2.1-3.71-3.26-5.15-12.6-15.82-18.54-34.38-20.9-53.84-.33,21.1,7.93,38.4,19.31,55.31,3.72,5.53,5.45,10.72,3.22,17.54l-2.43,7.41-14.41-24.77c-3.2-5.5-6.5-12.44-6.83-18.86l-.94-18.33-.22-60.46-3.57-3.86c1.26,3.54,1.85,5.95,1.85,9.6v56.62s-.71,35.39-.71,35.39c-.15,7.49,1.98,14.2,6.98,19.74l11.91,13.18c2.71,3,6.48,6.8,10.06,8.81l19.73,11.06c5.74,3.22,11.5,6.02,15.38,12.19l-37.45-18.81c-9.47-4.75-19.63-9.58-30.35-9.01l-6.15.33c-18.95,1.01-30.03,16.25-48.78,16.8l25-15.47c4.15-2.57,10.08-4.75,14.91-6.17l13.36-3.93,27.25,9.51c-2.3-2.48-5.06-4.33-8.32-5.93l-16.9-8.27-3.41,4.7-.04-12.92-2.86,9.22c-6.73,1.54-11.44,4.48-17.25,7.15l-6.07,2.78,8.42-12.83c15.57-11.96,11.99-31.75,11.59-51.85-2.85,15.05-11.01,25.63-23.29,35.02-6.61,5.05-9.27,11-11.57,18.67l-3.88,12.94c-8.27-9.07-5.02-18.1,2.74-28.15l-10.75,5.94c-9.08,5.02-15.17,12.62-22.94,19.3l-20.07,17.25-3.12,3.76c1.34-8.89,7.7-14.22,12.93-20.46,5.55-6.63,11.41-12.35,17.81-18.08l-26.57,8.97c-10.75,3.63-20.39,7.21-30.24,13.44l5.93-8.14c2.74-3.75,7.37-7.4,11.91-9.04l22.57-8.14,22.07-7.7c12.78-4.46,23.62-12.97,31.32-24.24,8.45-12.37,10.86-27.08,10.83-41.9-.01-6.67.79-12.9-1.51-19.4.15,29.8-2.43,56.12-29.41,73.92-8.6,5.67-18.8,9.75-29.4,10.8-8.19.81-15.84-1.69-24.32-1.65l13.35,3.43c-19.19,3.94-54.93-5.21-54.71-25.36.04-3.9,5.09-6.41,8.01-6.82,3.96-.55,8.43,1.08,11.04,3.66-2.72.3-4.59.36-5.76.8-1.33.49-2.45,4.19-2.23,5.69.78,5.53,5.08,9.58,10.61,11.58,21.15,7.65,45.29,5.67,64.81-6.09,15.7-9.45,24.9-25.23,27.83-43.26,3.27-20.13,3.66-40.16,1.44-60.5-.48-4.42-2.63-9.75-4.52-13.79-9.41-20.15-35.64-25.93-55.23-14.69-7.62,4.37-14.26,10.22-18.48,18-2.38,4.39-4.38,11.55-3.93,16.29l1.43,15.16c-5.71-6.07-4.52-21.39-1-30.08l-21.67,14.84.35.48c4.49,3.39,2.4,11-1.46,17.61l-2.51-7.2c-1.11-3.18.74-7.87,2.83-10.02l-.18-.36ZM186.07,95.09l-7.08-17.17c.12,6.63,2.3,13.28,7.08,17.17ZM272.59,84.84c2.41-1.98,3.39-3.98,3.64-6.83-1.72,2-2.93,4.27-3.64,6.83ZM153.04,109.07c1-2.63.58-5.51-1.29-7.94l1.29,7.94ZM282.43,126.37c1.21-3.32.55-6.38-2.41-8.93l2.41,8.93ZM164.08,175.37c.77-4.48.84-8.19.73-13.43-2.39,4.01-3.05,8.8-.73,13.43ZM232.36,277.02c-.62,4.45-.06,9.95,2.25,13.85l7.73,13.09c3.14-5.68,9-10.96,9.26-17.72l.48-12.79c.36-9.65-3-16.33-7.9-23.8-3.37-5.14-.48-13-.47-18.69l.08-50.1-.95.57-.43,49.9-1.23,18.95-6.81,12.5c-2.26,4.14-3.31,8.39-1.69,12.62.77-4.61.52-7.75,3.75-11.15l-.18,11.72v11.65c-2.46-3.54-2.87-6.57-3.89-10.61ZM398.4,209.04l4.43-6.74c-2.72.89-6.47,3.21-4.43,6.74ZM171.45,214.63c.63-.76-.43-2.47-1.26-1.7l-7.99,4.57c3.08-.42,4.8-1.12,9.25-2.88ZM317.85,262.82c15,4.37,28.78-5.66,30.69-20.19l1.66-5.12c-1.46-8.47-8.25-17.11-17.69-17.14l-13.82-.04-11.84-.91c5.73-3.89,11.07-3.83,17.78-4.25-2.49-1.49-5.21-1.72-8.13-1.02l-15.72,3.72c-10.56,2.5-19.01,9.66-23.85,19.36l-.03,3.84c-5.75,11.69-4.17,23.14-7.48,28.84-4.67,8.04-9.63,15.55-10.82,24.6,3.36-9.31,7.64-15.72,14.75-21.6,12.49-10.33,28.17-14.83,44.48-10.08ZM208.24,267.46c5.25,3.21,9.48,7.65,14.5,11.56-2.26-4.61-5.32-8.7-5.56-13.45-.95-19.48-4.99-38.3-24.1-44.42l-10.46-3.35c.39,1.25.83,2.66.3,2.6l-2.68-.33c-6.54.13-15.1.87-21.61-.02-4.16-.57-6.39-.68-9.79,1.26-7.4,4.23-11.84,10.39-12.18,19.74l2.64-.43c-.68,8.31,3.14,15.45,9.15,20,16.73,12.65,35.47-8.03,59.78,6.84ZM72.07,226.5l-11.61-7.23c1.8,5.17,6.85,6.49,11.61,7.23ZM224.23,276.11c.51-4.4.21-8.77-.33-13.57-1.34-11.83-3.69-25.93-11.87-33.7,1.97,4.92,5.02,8.89,6.64,13.67,2.67,7.89,3.52,16.21,4.48,24.38l1.08,9.22ZM267.03,242.54l6.53-12.56c-4.02,3.33-6.11,7.77-6.53,12.56ZM262.24,278.74c.72-2.8,1.44-5.86,1.53-8.4l.79-21.41c-1.59,5.64-1.67,11.29-1.88,17.46l-.44,12.35ZM220.08,305.19l-1.79-7.43c-3.7-15.29-17.12-25.16-32.61-26.15-3.75-.24-7.29-1.17-10.28,1.46,24.56-1.44,38.91,9.81,43.94,32.62l.75-.51ZM225.58,286.76c.49-1.35-2.7-4.35-3.6-4.1,1.98,8.59-1.34,11.9-.89,16.43l4.48-12.33ZM228.74,305.8c.82-2.35,0-3.53-1.24-3.75.33,1.41.87,3.01,1.24,3.75ZM251.86,314.47l3.6-12.32c-3.1,3.12-4.26,7.56-3.6,12.32ZM220.27,305.75l-.8.52,1.99,12.36,11.05-8.48c3.51,1.68,6.83,3.98,9.41,6.53-6.1,5.01-11.69,8.59-18.04,11.04-1.18,2.91-1.99,4.58-4.56,7.67l-.54-11.55c-.1-2.04-.43-4.6-2.3-5.85l.85,25.24,1.72-5.69c.35-1.16,3.48-1.84,4.12-1.45l-.19,2.81c-.02.28,1.31.06,1.29-.22-.72-9.6,11.92-9.34,21.05-21.33l-12.72-9.34-10.34,8.55-1.99-10.8ZM398.39,319.17c-3.27-2.44-6.99-3.69-10.69-3.49,3.7,1.76,6.83,2.89,10.69,3.49ZM238.68,343.16c.69-.42,1.61-1.1,1.72-.82l1.05,2.71,1.77-14.94.27-2.28c.04-.33-1.34-.75-1.53-.74-.08,4.29.22,10.09-2.7,13.4-2.38,2.7-6.47,4.88-6.61,8.75-.42,11.53-.07,22.49,2.09,33.47l3.94-39.54ZM231.6,378.44c-1.82,15.42-7.74,27.6-16.92,39.64,9.31-7.07,20.03-29.36,16.92-39.64Z"/>
    <path d="M257.99,532.55l.07-30-13.56,34.64-13.57-33.87.15,27.04c0,1.63,1.45,4.42,2.22,5.75l-11.57.07c1.46-1.97,3.14-4.6,3.14-6.54v-32.16c0-1.4-1.25-3.84-2.34-6.01l11.77-.17,10.99,28.87,10.98-28.96,12.63.17-2.95,4.57.15,36.89,2.78,3.24-13.26-.11,2.36-3.45Z"/>
    <path d="M195.48,536l-13.04.03c1.35-1.77,2.68-4.36,2.68-6.4l-.02-32.08c0-1.49-1.27-3.91-2.48-6.24l18.69.2c8.52.09,14.65,7.44,16.09,15.32,1.47,8.07.06,16.43-5.06,22.76-4.03,4.98-10.27,6.4-16.85,6.41ZM208.29,521.32c1.69-6.97,1.49-14.61-2.22-20.39-2.72-4.25-8.32-4.42-12.99-3.71l.08,33.01c6.54,1.33,13.34-1.56,15.12-8.91Z"/>
    <path d="M287.43,536.05l-12.9.03c1.11-1.73,2.64-4.64,2.64-6.48v-31.05c0-2.17-1.24-4.35-2.83-7.14l16.38-.12c13.23-.1,20.86,11.12,19.98,23.46s-9.61,21.26-23.27,21.3ZM301.59,519.52c.73-3.97.73-8.83.07-12.42-1.53-8.33-9.46-11.76-16.87-9.65l.06,32.36c8.17,2.1,15.17-1.75,16.74-10.3Z"/>
    <path d="M241.34,96.68c-2.32-7.27-11.86-8.69-9.05-23.29l-3.85-8.91c5.92,1.44,6.56,6.17,6.71,10.58,3.74,4.05,5.89,8.65,4.22,14.14l2.29,3.44c1.17-4.66,2.87-11.53.17-15.45-4.22-6.14-8.3-12.01-5.24-19.77l6.35-16.1,6.26,13.38c3.71,7.92,3.56,16.6-3.36,22.86l-.2,8.54c1.45-3.12,2.7-5.51,5.36-7.24l9.01-5.85-5.99,12.75c-3.22,6.85-6.33,11.9-9.74,20.18l-2.95-9.25ZM242.9,75.41l.92-.53-.1-23.59-.92.53.1,23.59ZM248.01,90.68l1.47-4.83c-1.9,1.12-2.22,3.19-1.47,4.83Z"/>
    <path d="M309.59,153.68c-4.36-1.52-7.18.56-11.22.97l-10.82,1.1c6.93-7.5,12.46-12.63,22.87-10.78,6.99,1.24,13.27-2.03,14.16-9.3-1.9,2.38-2.8,3.81-6.5,3.97l4.27-5.13c4.91-5.9-.52-10.2,3.9-16.88l3.73,6.89-.35-9.84c-.11-3.19-.16-6.24,3.16-8.06l3.74,10.89c-8.52,8.37-3.83,17.55-11.01,25.99l15.9-6.03,9.95,4.49c-5.24,4.51-14.27.71-19.79,4.82.12,1.02-.15,4.1-.92,3.71l-3.81-1.92-12.63,4.46c.25,1.29.53,3.51-.24,3.54l-3.98.14c-.79.03-.54-1.74-.39-3.01Z"/>
    <path d="M372.02,450.86l14.85-.87c-4.87-2.31-10.36-1.79-15.34-3.04l-16.49-4.14c10.37,6.4,20.87,13.02,25.21,26.11l-11.79-8.48c-8.39-6.03-16.9-10.11-26.61-13.81l-10.87-9.08c3.11-.6,6.66-.43,10.04.25l40.11,8.11c12.41,2.51,23.33,6.17,37.06,4.14-6.07,5.56-12.98,4.22-19.95,4.27l-18.05.14c-1.78.01-5.08-2-8.17-3.61Z"/>
    <path d="M386.65,263.78l7.55,8.33c.64.7-1.98,3.74-2.52,3.41l-7.67-7.08-9.33-6.21,1.5,7.61c-4.65.58-5.48-2.77-6.05-5.84l-13.75-13.88c4.83-2.22,9.78-1.49,12.99.62-.15,1.55.11,3.49,1.07,4.16l8.88,6.14c7.27,5.03,11.74-7.24,16.63-8.28,1.88-.4,5.58,1.83,5.83,3.74-1.86,5.96-8.93,7.85-15.14,7.28Z"/>
    <path d="M308.88,99.84c-.99,2.39-3.28,6.52-5.53,7.9-3.46,2.12-7.53,1.33-11.14-.58.75-1.72,2.19-4.07,3.34-4.87l11.01-7.71c-.04-3.35-2.29-10.01,1.27-13.6l9.63-9.73.57,7.82c.48,6.66.17,13.78-6.02,17.98l3.08,2.05c-1.17,1.13-3.55,1.4-6.21.75ZM310.09,92.74c2.48-4.35,3.98-8.89,4.28-13.81-2.15,4.74-3.44,8.97-4.28,13.81Z"/>
    <path d="M63.02,394.61l-2.57-11.06c-1.29-5.55-4.91-7.67-11.1-8.24l10.95-4.34c-1.23-2.49-1.2-3.9-.44-6.13l3.27-9.58,5.76,16.39,9.67,3.59-7.81,1.37c-2.29.4-5.06,2.36-5.46,4.73l-2.25,13.25Z"/>
    <path d="M319.62,355.94c1.67-4.84,1.85-6.71.68-9.41l-4.46,4.39c-1.02,1.01-5.26.31-5.76-1.3-1.38-4.45,1.59-9.88,6.67-10.77,4.67-.81,9.49,1.01,11.57,6.59.77,2.06.44,5.51-.77,7.14-1.74,2.35-5.26,3.45-7.94,3.35Z"/>
    <path d="M429.24,407.99l-2.6-14.85c-1.16,2.35-1.81,3.52-3.95,5.87l1.16-5.92c.08-.4,2.01-.82,1.97-.44s.06-2.22-.22-2.47c-1.57-1.36-5.09-2.44-8.22-3.32,7.78-2.01,9.61-2.55,11.05-10.66l.35-1.99c.06-.33,1.31-.19,1.37.15l.35,1.96c1.02,5.69,3.25,9.41,11.08,10.71l-9.08,2.49-.03,4.73-3.22,13.74Z"/>
    <path d="M382.31,404.71c-1.45,3.77-3.68,6.09-5.55,7.82-.55-2.99-.89-5.13-1.92-7.09-.91-1.72-4.93-2.06-6.95-1.68l-8,1.5c-2.82.53-5.8-3.15-5.86-5.74-.06-3.03,2.42-6.48,5.95-5.88l-1.87,5,6.46.56c8.55.74,10.75-1.94,14.63-.06,1.3.63,3.64,4.21,3.12,5.57Z"/>
    <path d="M114.73,463.41l-12.09,4.93c2.79-7.54,7.16-11.5,13.96-16.18-2.14-2.65-5.18-3.38-9.45-3.81,6.79-3.97,13.97-5.49,21.89-5.93,2.23-.55,4.77-1.27,6.91-.51-5.97,1.98-10.96,3.58-14.24,8.59-2.03,3.11-4.76,5.18-8.21,7.37l1.22,5.54ZM106.18,464.43l1.31.41,3.2-3.8-.85-.79-3.66,4.17Z"/>
    <path d="M120.57,171.26c3.32,1.18,4.9,5.79,4.21,9.78-1.51-1.18-4.28-3.37-5.91-4.03-6.73.8-14.03-4.51-12.91-11.79,3.14.29,6.34-.42,5.84-4.11l8.14-4.02-4.43,7.45c1.92,2.95,3.21,6.14,4.44,10.07.34.2.69.37.68.09l-.06-3.43ZM113.68,173.48c-.37-2.25-1.68-3.18-3.44-2.85l3.44,2.85Z"/>
    <path d="M43.54,314.99c-4.85,3.65-13.12-1.99-13.27-8.17-.12-5.06,1.98-8.77,6.99-10.14,3.37-.93,7.8.55,9.81,2.87,2.63,3.03,3.92,6.83,2.69,10.76l-6.22,4.68ZM38.25,300.85c-4.49.79-6.04,5.16-4.43,9.05,1.49,3.61,6.25,5.92,9.79,2.9,3.92-3.35,3.61-9.68.32-13.59l-2.19,2.29c-.41.43,1.01,2.1,1.24,2.8.3.88-1.26,2.6-2.19,2.62s-3.42-.82-3.27-1.74l.73-4.33Z"/>
    <path d="M370.08,479.76c-4.66.53-7.95.41-11.12,2.16-3.07,1.69-3.94,5.4-6.16,9.62-.15-2.3.37-4.69,1.07-6.99l-6.8,2.82c-1.32.55-4.34.49-6.66.61-3.55.19.56-5.61-1.1-14.2l7.05,4.89c1.24.86,2.53,3.75,3.3,5.38.46-.19,2.13-1.57,1.81-2.2l-1.96-3.93c-.05-.3,2.64-.69,2.86.07l1.29,4.46,9.02-4.22c2.13-1,5.86-.37,7.4,1.53Z"/>
    <path d="M178.89,347.81c-3.76,1.49-9.22,1.72-13.22.82.01-6.09,3.71-11.83,9.19-11.43s9.38,7.09,8.44,12.72l-4.42-2.12Z"/>
    <path d="M138.5,486.55c1.02,4.35,3.93,8.4.09,13.89l-2.41-7.63c.29-7.88-5.53-12.81-12.95-13.47l-1.8-.69c-2.37-.91,4.91-5.79,14.28,4.6l2.21-2.79c1.14-1.44,7.03,2.78,7.76,9.32.33,2.99-1.73,6.71-4.09,8.33l1.32-6.53c.33-1.61-2.29-4.26-4.4-5.03Z"/>
    <path d="M345.17,97.77c1.01,5.31-1.48,9.73-5.86,13.02-5.4-3.43-6.67-10.64-2.04-15.95l6.03-6.92,1.88,9.85ZM338.9,108.12c1.85-3.13,2.28-6.58,1.28-9.85l-1.28,9.85Z"/>
    <path d="M104.93,148.21c-3.23-.88-6.91-4.12-7.57-8.02l-2.44-14.34,9.57,8.21c4.16,3.57,4.93,9.26,1.54,13.65l.19.39c2.09.36,5.29,1.69,6.44,3.28,1.45,2,.91,6.47-1.34,7.64-1.68-.23-4.86-2.39-5.71-3.79s-.59-4.74-.2-6.33l-.49-.7ZM104.23,144.21c-.25-4.56-1.2-5.93-3.76-7.44l3.76,7.44Z"/>
    <path d="M112.7,257.13l-7.12,3.62c-3.4,1.73-8.1,1.26-10.51-2.06l-6.25-8.62c4.05,1.88,5.9,3.23,9.58,1.07l6.96,2.71c3.19-1.25,5.02-.81,7.34,3.28Z"/>
    <path d="M87.72,178.95c-2.6,3.39-8.74-.75-10.05-3.55l-5.69-12.1,9.3,2.74c4.45,1.31,10.13,8.09,6.44,12.91ZM84.27,176.13l-.18-1.96-5.06-4.66-.37,1.39,5.62,5.23Z"/>
    <path d="M345.65,116.87l2.25,8.32-2.98-.31-3.27,6.11c-2.97-5.74-1.67-11.67,3.42-14.58-.51-3.67,2.31-7.67,6.19-8.47l11.71-2.42-4.81,8.3c-2.46,4.25-5.84,7.11-11.35,4.75l3.65-3.94-4.83,2.24Z"/>
    <path d="M405.92,173.59c-1.9,4.26-7.05,5.64-10.67,3.53-.83-5.52,2.6-9.29,7.02-11.45l9.19-4.49-5.53,12.41Z"/>
    <path d="M301.85,136.51c1.56-4.6,2.15-9.53-.1-14.18,5.37,2.41,8.73,0,13.77-3.48l-2.05,10.85c-2.52,3.49-6.03,5.29-11.61,6.81Z"/>
    <path d="M101.97,453.1l-14.61,1.39c-5.01.48-9.88-.51-13.82-3.45l24.39-2.21,12.04,3.16c-1.82,2.09-5.16.85-8,1.12Z"/>
    <path d="M307.17,316.81l-2.43,1.36-4.57-4.46,5.78-2.12-3.18-2.17c-.55-.38-.26-2.26.3-2.62,2.69-1.73,3.84.83,6.32-2.21l5.47,4.12-2.47,2.66c-.59.64,2.09,2.37,2.92,2.9-3.89,2.44-4.63,3.77-6.42,8.3l-1.72-5.76Z"/>
    <path d="M391.23,376.53c.09,3.09-4.85,6.54-4.97,6.45l1.61,1.3c-2.51,1.24-5.2.54-7.87-2.03-1.5-1.44-2.03-4.92-.72-7.46s4.67-4.23,7.98-3.22c1.48.45,3.92,3.43,3.96,4.96Z"/>
    <path d="M426.85,241.74c-2.07,4.86-7.79,7.87-12.12,3.98.52-3.39,3.26-10.1,6.9-11.33l9.77-3.31-4.55,10.66ZM425.17,237.87c-3.02.43-5.59,1.52-7.52,4.97,2.78-1.21,4.96-2.63,7.52-4.97Z"/>
    <path d="M388.03,138.59c-.91,4.44-4.46,8.88-8.77,9.77-4.39-5.27-.68-11.67,4.24-14.83l6.41-4.12-1.88,9.18Z"/>
    <path d="M83.68,204.53l4.09-.82c.69-.14,1.02-1,1.15-1.89-5.09.54-12.87-2.55-17.85-6.67,4.46-.64,8.08-.92,11.56-.04,7.45,1.87,11.75,9.03,8.87,16.13l-7.82-6.71Z"/>
    <path d="M377.3,165.16c2.4,2.94-3.11,8.55-6.41,7.65s-5.18-4.57-5.04-7.62,2.2-5.95,5.4-7.45l6.05,7.42ZM372.31,170.4c2.25-.9,2.53-3.23,1.39-4.88l-1.39,4.88Z"/>
    <path d="M83.41,275.85c-3.67-2.24-.68-8.68,1.67-9.1,7.22,2.37,9.07-6.91,15.44-2.67-3.85,3.14-6.64,5.71-9.21,9.27-1.18,1.64-5.96,3.69-7.89,2.5Z"/>
    <path d="M183.57,351.32c-2.22,4.43-4.9,8.49-8.25,12.64l-4.89-10.16c-1.69.7-3.7.74-3.83-.12-.21-1.33-.58-3.81-.53-3.48,4.49,1.57,6.27,1.58,9.59.11l7.91,1Z"/>
    <path d="M101.68,385.13c-1.82-1.88-2.7-4.78-3.36-7.45l-.95,6.18c-.63-1.88-1.19-4.17-1.15-6.13.03-1.51,2.47-3.88,4.18-4.28,2.49-.57,5.85.66,7.13,2.12,2.02,2.3,2.52,5.99,1.75,8.17l-1.45-1.68c-.65-.75-3.86,5.43-6.15,3.07Z"/>
    <path d="M358.35,512.65l-5.46-3.3c-1.71-1.59-3.68-4.94-3.71-7.26-.04-2.47,1.9-5.6,3.89-7.56l6.45,8.82-1.17,9.31Z"/>
    <path d="M186.13,185.83c-2.46-4.06-3.14-6.45-4.16-10.37l-1.82-7,4.94,3.12,7.05-4.62-2.47,10.85c-.61,2.69-1.58,4.65-3.53,8.02Z"/>
    <path d="M119.24,292.58c-4.84,3.96-12.73,6.4-18.39,1.2,6.9-1.74,12.71-2.31,17.67-6.81l8.92-1.11-8.2,6.72Z"/>
    <path d="M358.55,334.85c-4.75-5.29-7.85-3.07-10.69-8.29l-2.35-4.31,4.63-5.08,6.78,7.5,1.63,10.18Z"/>
    <path d="M137.03,212.52l-7.76,3.83c-3.71-.33-7-4.13-8.22-7.79,1.25-2.44,6.41-4.58,9.06-3.61l6.92,7.58ZM132.25,211.78c-1.37-2.91-3.99-3.45-6.61-2.54l6.61,2.54Z"/>
    <path d="M114.51,401.43l12.71-2.9v-5.39c3.78,1.17,5.74,5.24,4.76,7.79-1.56,4.07-5.03,6.06-9.16,4.73-2.67-.86-4.54-1.86-8.31-4.24Z"/>
    <path d="M378.98,336.08c-1.94-3.91-4.39-8.91-3.77-12.77l1.65-10.22c5.16,3.5,6.07,9.59,4.28,15.65l-2.17,7.34Z"/>
    <path d="M348.93,138.91c4.23-8.82,10.6-6.54,19.79-11.9l-6.11,8.64c-3.17,4.49-8.79,5.72-13.68,3.26Z"/>
    <path d="M77.24,287.16c-5.32.5-9.05-1.49-12.76-4.36l11.38-3.4c2.19-.65,6.82-1.36,7.6,1.55.41,2.09-3.84,5.98-6.23,6.21Z"/>
    <path d="M195.67,190.51l-2.17,5.38-7.34-5.9c.17-4.11,4.29-7.89,8.24-9.26l3.41,5.79-2.14,4Z"/>
    <path d="M365.76,277.39c-3.51,3.24-8.01,3.99-13.45,3.1l5.9-7.21c2.43-2.97,6.25-4.28,10.55-3.67-.34,1.83-1.38,6.28-3,7.78ZM359.96,277.71l1.93-.18,3.7-4.14-1.39-.35-4.24,4.67Z"/>
    <path d="M146.52,330.64c-1.7-1.7-3.24-3.08-4.36-3.79-1.21-.76-2.43-4.18-1.38-4.79l3.69-2.14c.85-.49.76-3.32.82-4.32l.13-1.92c.03-.52,1.47-1.39,1.57-.88l.51,2.6c.19.96-.18,4.19.68,4.62l4.59,2.29-6.26,8.33Z"/>
    <path d="M452.14,298.45l-12.71.43c-.49-3.46,1.89-6.77,5.16-7.94s6.56-.17,9.52,2.53l-1.97,4.98Z"/>
    <path d="M379.34,209l-4.25,9.11c-2.37-5.39-3.72-8.17-9.03-9.52,3.77-1.43,5.6-3.02,7.56-6.68l2.45,3.52,3.42-.07c.88-.02.22,2.85-.16,3.65Z"/>
    <path d="M94.96,323.26l-12.46,3.11,5.99-7.94c3.87-2.36,6.92-4.41,12.44-.79l-5.98,5.62Z"/>
    <path d="M69.36,256.45c-3.9,2.35-7.74,1.94-11.74-.86l5.73-3.18-5.1-4.28,9.62.04c1.36,0,3.44,2.27,3.68,3.46s-.96,4.08-2.19,4.82ZM70.22,252.99l-6.02.23,3.54,1.73c.64.31,1.77-1,2.48-1.96Z"/>
    <path d="M138.16,118.96c-4.57,3.62-9.49,1.55-12.07-2.71l-3.76-6.2,10.18,2.57c2.08.52,4.49,4.44,5.65,6.34Z"/>
    <path d="M187.93,120.47c-3.08,3.41-3.22,4.36-5.42,9.55l-3.82-7.78c-.33-.4-1.49-1.83-1.06-2.1l2.31-1.42-.61-6.5,4.52,5.91,4.07,2.34Z"/>
    <path d="M181.73,309.01c-3.29,1.81-5.31,3.94-7.09,7.98-1.21-4.24-3.31-6.39-6.97-7.87,4.04-1.22,5.68-3.22,7.13-7.36,1.4,3.78,2.97,6.09,6.92,7.25Z"/>
    <path d="M101.11,294.52c-5.76,4.48-12.32-.08-16.91-2.72l-2.91-1.06c-.5-.18,1.37-2.11,1.88-1.96,2.7.77,8.03,2.78,10.95,2.8,3.09.02,5.66.25,6.98,2.95Z"/>
    <path d="M415.44,270.69l-6.99-4.89,6.65-7.31,7.7,5.46-7.36,6.73ZM419.47,263.9c-2.94-.69-5.99-.59-7.24.19,1.5,3.39,6.27,2.23,7.24-.19Z"/>
    <path d="M147.11,133.77c-1-1.24.78-4.53,2.43-5.88l-7.09-4.04c-.13.06-2.18,1.85-2.8,1.27l-2.86-2.64,5.41-4.7,3.45,5.57,8.05,2.77-6.6,7.64Z"/>
    <path d="M69.39,243.98c-1.28-3.01,4.81-7.88,7.92-6.93,2.28,1.65,1.51,5.48.11,7.35-1.56,2.09-6.3,3.63-8.03-.43Z"/>
    <path d="M137.45,507.13l-5.43,5.2c-2.59-2.57-3.8-6.37-1.33-9.83.92-1.29,4-1.8,5.25-1.16,1.63.82,2.92,4.44,1.51,5.79Z"/>
    <path d="M420.96,194.07c-3.48,3.11-8.66,8.04-14.33,6.28-.72-4.13,3.75-7.89,7.9-7.26l6.43.98Z"/>
    <path d="M414.42,247.21c-1.75,3.16-3.06,5.5-5.33,8.05-1.71,1.92-6.1.09-6.99-1.89-.8-1.77,1.32-6.62,3.42-6.53l8.89.38ZM404,253.3c4.07,1,5.98-1.25,7.44-4.29l-7.44,4.29Z"/>
    <path d="M306.15,363.81c-1.62,1.3-5-2.25-5.43-4.27s1.91-6.06,4.28-5.65c1.36.23,3.63,2.4,4.13,3.59.59,1.4-.56,4.39-2.98,6.33Z"/>
    <path d="M279.18,196.7c-1.4-2.76-3.67-5.5-5.94-7.11,2.62-1.01,4.55-3.29,5.71-7.34,1.42,3.49,2.72,5.85,6.3,7.78-3.07.75-4.83,2.69-6.07,6.67Z"/>
    <path d="M137.23,134.16l-8.18.68c-3.31-2.87-7.69-8.61-8.27-12.44,5.91,6.14,11.77,6.95,16.45,11.76Z"/>
    <path d="M410.56,289.88l-7.86-1.25c.71-3.72,4.47-5.78,7.68-4.8l7.81,2.38c-1.1,1.16-5.59,3.99-7.63,3.67Z"/>
    <path d="M375.17,159.25c-1.9.04-3.86-4.08-3.3-6.23s2.19-3.72,5.01-5.8c1.16,1.72,2.09,3.51,2.71,5.55.51,1.67-1.66,4.97-4.42,6.48Z"/>
    <path d="M109.56,485.08l6.67-.5c-1.41,1.24-3.05,2.49-4.31,3.12-1.12.57-4.69-1.2-4.59-2.5.4-4.94,6.93-9.8,12.28-6.33-2.08,5.11-9.72.47-10.06,6.21Z"/>
    <path d="M82.86,266.45c-.79.66-2.7,1.84-3.61,1.93-1.91.18-6.78-4.94-7.78-9.51,5.77.05,7.74,3.11,11.39,7.58Z"/>
    <path d="M403.55,284.65c-5.42-.33-8.72-2.88-10.04-7.9,2.06-.7,5.15-.55,6.6.67,1.83,1.55,2.69,3.48,3.44,7.23Z"/>
    <path d="M453.76,303.57c-.32,1.5-2.9,4.81-5.41,5.06-1.53.16-4.02-1.44-4.25-2.6-.3-1.51,2.36-3.77,3.73-3.53l5.93,1.07Z"/>
    <path d="M373.83,485.89c2.62-2.62,4.01,0,6.22.92-.93-4.78-9.55-4.05-7.8-5.78l1.42-1.4c4.51,1.93,9.11,4.68,9.6,10.58l-9.43-4.32Z"/>
    <path d="M235.4,139.49c.58.63,1.59,2.48,1.57,3.3s-1.3,2.27-2.06,2.66c-3.16-5.39-5.27-9.21-7.58-14.63l8.07,8.67Z"/>
    <path d="M187.02,204.38c-1.24-.59-3.56-2.7-3.74-4.05-.24-1.73.71-4.7,1.69-6.65,3.4,2.84,4.56,6.3,2.05,10.7Z"/>
    <path d="M148.39,175.34l-3.66-5.81-1.87-1.2c-.48-.31-.31-1.67-.31-2.35l-4.62-7.26,5.66,5.35,2.64,1.56,2.17,9.7Z"/>
    <polygon points="72.12 204.14 67.75 208.31 64.7 200.11 72.12 204.14"/>
    <polygon points="100.05 166.95 95.98 170.92 94.82 161.41 100.05 166.95"/>
    <path d="M81.47,216.24c-2.03,1.34-4.87,1.71-5.95.44-.94-1.11-1.94-3-2.54-4.5l8.49,4.06Z"/>
    <path d="M55.62,389.06l1.14-9.57c3.05,2.35,2.51,5.92-1.14,9.57Z"/>
    <polygon points="301.2 460.19 296.27 458.25 300.16 453.6 301.2 460.19"/>
    <path d="M450.93,311.06c-3.75,2.45-9.34-.07-10.54-4.27,3.28,2.69,6.39,3.92,10.54,4.27Z"/>
    <path d="M419.58,211.52c-.35,6.28-4.75,4.64-6.5,3.27l6.5-3.27Z"/>
    <path d="M407.52,185.56l-6.69,2.76c.56-3.58,3.32-5.37,6.69-2.76Z"/>
    <path d="M338.45,469.87c-2.26-1.15-3.94-3.75-3.71-6.87,2.43,1.5,3.63,3.38,3.71,6.87Z"/>
    <path d="M69.55,368.98c-.97-2.57-1.36-4.81-.9-7.17,2.27,2.39,2.34,4.74.9,7.17Z"/>
    <path d="M423.36,220.95l3.99-4.21c.22.82.52,2.8.38,3.41-.18.76-1.28.67-4.36.8Z"/>
    <path d="M367.02,480.97l-3.04,3.69c-.48.58-2.28-1.43-3.07-2.64l6.11-1.05Z"/>
    <path d="M312.57,251.21c-.95-3.87-2.65-6.34-6.62-8.2,2.85-.88,5.18-2.64,5.46-4.84l.28-2.18c.05-.37,1.37-.4,1.47-.04l.61,2.17c.58,2.05,3.39,3.74,6.51,5.25-4.36.99-5.88,3.16-7.72,7.84Z"/>
    <path d="M171.27,253.98l-4.14-5.05,1.61-2.22-7.08-3.37c5.37-.09,7.04-3.84,7.92-6.6l.7-2.21c.51-1.61.51,8.72,8.4,8.81l-5.23,2.09-2.17,8.53Z"/>
  </g>
  <g>
    <g>
      <path d="M593.05,266.73c-8,0-23.2-.6-29.8-.6-12.4,0-19.4.4-19.4.4l1.8-3.4c4-7.4,5-9,5-69s-.8-59-5-67l-1.8-3.4s7,.4,19,.4c8,0,22.6-.6,31.2-.6,32,0,81.4,2.2,81.4,69.2,0,72.2-50.6,74-82.4,74ZM596.25,142.93c-6.4,0-10.6.6-10.6.6v103.2s3.6.4,10.8.4c29.2,0,42-17.2,42-52.4s-12.4-51.8-42.2-51.8Z"/>
      <path d="M824.85,266.13c-17.2,0-24.2.4-24.2.4l1.8-3.4c3.8-7,5-10,5-69v-39c-.2.4-3.4,11.2-9,23.8l-32.2,72.4-32-72.2c-5.8-12.8-8.6-22.4-9-23.8v40.8c0,58.2.8,59,5,67l1.8,3.4s-6.6-.4-18.8-.4-19.4.4-19.4.4l1.8-3.4c4-7.6,5-9,5-69s-.8-59-5-67l-1.8-3.4s8,.4,26.2.4c16.6,0,23.6-.4,23.6-.4l23.8,53.8c2.2,5,2.8,7.8,3,8.2,0-.4.8-2.8,3.2-8.2l24-53.8s7.6.4,24.6.4,26.2-.4,26.2-.4l-1.8,3.4c-4,7.4-5,9-5,69s.8,59,5,67l1.8,3.4s-6.6-.4-23.6-.4Z"/>
      <path d="M918.45,266.73c-8,0-23.2-.6-29.8-.6-12.4,0-19.4.4-19.4.4l1.8-3.4c4-7.4,5-9,5-69s-.8-59-5-67l-1.8-3.4s7,.4,19,.4c8,0,22.6-.6,31.2-.6,32,0,81.4,2.2,81.4,69.2,0,72.2-50.6,74-82.4,74ZM921.65,142.93c-6.4,0-10.6.6-10.6.6v103.2s3.6.4,10.8.4c29.2,0,42-17.2,42-52.4s-12.4-51.8-42.2-51.8Z"/>
      <path d="M1173.65,266.13c-17,0-24.4.4-24.4.4l1.8-3.4c3.8-7.2,5-9,5-58h-49c0,49.2,1,50.4,5,58l1.8,3.4s-7.2-.4-24.2-.4-24.4.4-24.4.4l1.8-3.4c4-7.6,5-9,5-69s-.8-59-5-67l-1.8-3.4s7,.4,24.4.4,24.2-.4,24.2-.4l-1.8,3.4c-3.6,6.8-5,8.8-5,54.6h49c0-45.8-1-47.4-5-54.6l-1.8-3.4s7,.4,24.4.4,24.2-.4,24.2-.4l-1.8,3.4c-4,7.4-5,9-5,69s.8,59,5,67l1.8,3.4s-7.2-.4-24.2-.4Z"/>
      <path d="M1304.44,263.53c2.4,1.8,7.2,4.8,14.6,8.4,6.6,3.2,14.6,5.8,18.4,5.8,4.8,0,6.4-.8,6.4-.8l-14.4,32-3.4-4.4c-3.4-4.6-15.2-7.6-33.8-18.8-15.8-9.4-22.6-16.4-25-18.8-33.2-6-50.8-30-50.8-69.6s18-75.2,66.8-75.2c44.6,0,67.2,26,67.2,71.2,0,30.8-9.6,61.8-46,70.2ZM1283.65,142.73c-20.2,0-29.4,16.4-29.4,53s9,52.4,29,52.4,29.4-16.4,29.4-53-9-52.4-29-52.4Z"/>
    </g>
    <g>
      <path d="M584.88,330c-.08-.08-.62-.78-2.81-2.11-1.87-1.09-4.91-1.87-8.58-1.87h-5.07v23.32c0,22.7.31,23.01,1.95,26.13l.7,1.33s-1.87-.16-6.47-.16-6.55.16-6.55.16l.7-1.33c1.56-2.96,1.95-3.51,1.95-26.91v-22.54h-5.07c-3.67,0-6.71.78-8.58,1.87-2.03,1.25-2.73,1.95-2.81,2.11,0-.08.23-1.64.23-4.76,0-2.81-.08-4.06-.08-4.06h40.33s-.08,1.25-.08,4.06c0,3.12.23,4.6.23,4.76Z"/>
      <path d="M632.14,376.65c-4.6,0-6.55.16-6.55.16l.7-1.33c1.48-2.89,1.95-3.67,1.95-24.49h-25.82c0,20.91.31,21.45,1.95,24.49l.7,1.33s-1.87-.16-6.47-.16-6.55.16-6.55.16l.7-1.33c1.56-2.96,1.95-3.51,1.95-26.91s-.31-23.01-1.95-26.13l-.7-1.33s1.87.16,6.47.16,6.55-.16,6.55-.16l-.7,1.33c-1.48,2.81-1.95,3.59-1.95,22.78h25.82c0-19.11-.39-19.81-1.95-22.78l-.7-1.33s1.87.16,6.47.16,6.55-.16,6.55-.16l-.7,1.33c-1.56,2.96-1.95,3.51-1.95,26.91s.31,23.01,1.95,26.13l.7,1.33s-1.87-.16-6.47-.16Z"/>
      <path d="M683.86,374.39l-.16,2.34h-26.75c-4.21,0-6.01.08-6.01.08l.7-1.33c1.56-2.96,1.95-3.51,1.95-26.91s-.31-23.01-1.95-26.13l-.7-1.33s1.72.08,5.93.08h26.05s-.08,1.25-.08,4.06c0,3.12.23,4.6.23,4.76-.08-.08-.62-.78-2.81-2.11-1.87-1.09-4.91-1.72-8.58-1.72h-10.3v20.2h8.42c3.67,0,6.71-.39,8.58-1.48,2.03-1.17,2.65-1.87,2.81-2.03,0,.08-.23,2.34-.23,6.08s.23,5.85.23,6.01c-.08-.08-.62-.78-2.81-2.11-1.87-1.09-4.91-1.48-8.58-1.48h-8.42v20.36h9.52c9.67,0,10.92-2.26,13.81-6.47,0,0-.39,2.81-.86,9.13Z"/>
      <path d="M729.8,376.88c-3.35,0-6.4-.23-9.44-.23-4.29,0-6.4.16-6.4.16l.7-1.33c1.56-2.89,1.95-3.51,1.95-26.91s-.31-23.01-1.95-26.13l-.7-1.33s2.11.16,6.4.16c3.12,0,7.25-.23,10.61-.23,7.96,0,29.41.62,29.41,26.68,0,28.63-20.75,29.17-30.58,29.17ZM729.88,325.95c-3.04,0-5.38.23-5.38.23v45.55s2.65.23,5.15.23c10.3,0,22.23-2.11,22.23-23.32,0-20.05-11.08-22.7-22-22.7Z"/>
      <path d="M804.05,374.39l-.16,2.34h-26.75c-4.21,0-6.01.08-6.01.08l.7-1.33c1.56-2.96,1.95-3.51,1.95-26.91s-.31-23.01-1.95-26.13l-.7-1.33s1.72.08,5.93.08h26.05s-.08,1.25-.08,4.06c0,3.12.23,4.6.23,4.76-.08-.08-.62-.78-2.81-2.11-1.87-1.09-4.91-1.72-8.58-1.72h-10.3v20.2h8.42c3.67,0,6.71-.39,8.58-1.48,2.03-1.17,2.65-1.87,2.81-2.03,0,.08-.23,2.34-.23,6.08s.23,5.85.23,6.01c-.08-.08-.62-.78-2.81-2.11-1.87-1.09-4.92-1.48-8.58-1.48h-8.42v20.36h9.52c9.67,0,10.92-2.26,13.81-6.47,0,0-.39,2.81-.86,9.13Z"/>
      <path d="M831.35,354.5c-2.96,0-5.23-.31-5.23-.31,0,16.77.31,18.17,1.95,21.29l.7,1.33s-1.87-.16-6.47-.16-6.55.16-6.55.16l.7-1.33c1.56-2.89,1.95-3.51,1.95-26.91s-.31-23.01-1.95-26.13l-.7-1.33s2.03.16,5.3.16,7.02-.16,9.28-.16c7.33,0,21.06.62,21.06,16.22s-11.62,17.16-20.05,17.16ZM830.26,325.79c-2.42,0-4.13.16-4.13.16v23.63s1.09.23,4.68.23c11.62,0,12.17-8.03,12.17-12.56,0-10.22-7.25-11.47-12.71-11.47Z"/>
      <path d="M894.85,376.65c-4.29,0-7.41.16-7.41.16,1.01-.7,2.5-2.03,2.5-4.91,0-2.65-1.48-7.49-3.04-13.03l-1.4-4.91h-17.4l-1.4,4.91c-1.64,5.62-3.04,10.37-3.04,13.03,0,2.89,1.56,4.21,2.57,4.91,0,0-2.73-.16-6.94-.16-4.45,0-6.63.16-6.63.16,2.89-2.81,4.29-7.72,7.72-18.49l10.14-32.53c.31-.94.62-1.87.62-2.89s-.39-1.48-.55-1.64h14.74c0,.08-.47.55-.47,1.64,0,1.01.23,1.95.55,2.89l9.52,32.53c3.2,10.84,4.6,15.68,7.49,18.49,0,0-2.89-.16-7.57-.16ZM878.54,329.77c-.86-3.12-1.48-5.15-1.64-5.85-.16.55-.7,2.5-1.72,5.85l-5.62,19.03h14.51l-5.54-19.03Z"/>
      <path d="M946.87,377.04c-5.38,0-7.33-2.42-11-8.11l-5.62-8.66c-4.84-7.49-5.69-9.05-9.91-9.05-.7,0-1.33.08-1.33.08,0,19.81.31,21.06,1.95,24.18l.7,1.33s-1.87-.16-6.4-.16-6.47.16-6.47.16l.7-1.33c1.48-2.89,1.95-3.51,1.95-26.91s-.31-23.01-1.95-26.13l-.7-1.33s2.26.16,5.46.16c2.26,0,6.16-.16,8.97-.16,9.05,0,20.83.7,20.83,14.04,0,6.32-3.43,14.9-17.16,14.74,6.63.86,9.05,4.45,13.11,11.15l3.74,6.16c2.73,4.52,4.76,7.8,7.96,9.21,0,0-1.09.62-4.84.62ZM922.93,325.79c-2.11,0-3.9.16-3.9.16v20.59s1.56.16,4.52.16c.94,0,3.35-.16,4.68-.31,4.06-.62,7.41-3.98,7.41-10.38,0-9.2-5.62-10.22-12.71-10.22Z"/>
      <path d="M992.35,330c-.08-.08-.62-.78-2.81-2.11-1.87-1.09-4.91-1.87-8.58-1.87h-5.07v23.32c0,22.7.31,23.01,1.95,26.13l.7,1.33s-1.87-.16-6.47-.16-6.55.16-6.55.16l.7-1.33c1.56-2.96,1.95-3.51,1.95-26.91v-22.54h-5.07c-3.67,0-6.71.78-8.58,1.87-2.03,1.25-2.73,1.95-2.81,2.11,0-.08.23-1.64.23-4.76,0-2.81-.08-4.06-.08-4.06h40.33s-.08,1.25-.08,4.06c0,3.12.23,4.6.23,4.76Z"/>
      <path d="M1046.09,376.65c-4.6,0-6.63.16-6.63.16l.7-1.33c1.64-3.04,1.95-3.59,1.95-26.91v-23.32c-.08.47-.78,3.35-1.79,5.69l-15.29,36.5-15.05-36.19c-1.01-2.26-1.87-5.54-1.95-5.85v23.95c0,22.7.23,22.93,1.95,26.13l.7,1.33s-1.95-.16-5.69-.16-5.46.16-5.46.16l.7-1.33c1.48-2.89,1.87-3.51,1.87-26.91s-.23-23.01-1.87-26.13l-.7-1.33s3.04.16,7.41.16c4.06,0,6.63-.23,6.63-.23l11.54,27.93c.62,1.79.94,2.5.94,2.65,0-.08.16-.94.94-2.73l11.7-27.69s2.89.16,6.79.16c4.13,0,6.86-.23,6.86-.23l-.7,1.33c-1.56,2.89-1.95,3.51-1.95,26.91s.31,23.01,1.95,26.13l.7,1.33s-1.64-.16-6.24-.16Z"/>
      <path d="M1097.72,374.39l-.16,2.34h-26.75c-4.21,0-6.01.08-6.01.08l.7-1.33c1.56-2.96,1.95-3.51,1.95-26.91s-.31-23.01-1.95-26.13l-.7-1.33s1.72.08,5.93.08h26.05s-.08,1.25-.08,4.06c0,3.12.23,4.6.23,4.76-.08-.08-.62-.78-2.81-2.11-1.87-1.09-4.91-1.72-8.58-1.72h-10.3v20.2h8.42c3.67,0,6.71-.39,8.58-1.48,2.03-1.17,2.65-1.87,2.81-2.03,0,.08-.23,2.34-.23,6.08s.23,5.85.23,6.01c-.08-.08-.62-.78-2.81-2.11-1.87-1.09-4.92-1.48-8.58-1.48h-8.42v20.36h9.52c9.67,0,10.92-2.26,13.81-6.47,0,0-.39,2.81-.86,9.13Z"/>
      <path d="M1155.05,322.44c-1.48,2.81-1.87,3.51-1.87,26.91l-.08,27.54s-1.79-.23-4.76-.23c-3.35,0-5.23.23-5.23.23l-23.09-43.92c-1.17-2.26-1.95-4.84-2.03-5.38v21.76c0,22.7.31,23.01,1.95,26.13l.7,1.33s-1.95-.16-5.77-.16-5.54.16-5.54.16l.7-1.33c1.48-2.81,2.03-3.51,2.03-26.91s-.31-23.01-1.95-26.13l-.7-1.33s1.64.16,6.63.16c3.98,0,5.93-.16,5.93-.16l22.93,43.6c1.79,3.28,2.26,5.54,2.26,5.54v-21.69c0-22.7-.31-23.01-1.95-26.13l-.7-1.33s1.79.16,5.62.16,5.62-.16,5.62-.16l-.7,1.33Z"/>
      <path d="M1203.02,330c-.08-.08-.62-.78-2.81-2.11-1.87-1.09-4.91-1.87-8.58-1.87h-5.07v23.32c0,22.7.31,23.01,1.95,26.13l.7,1.33s-1.87-.16-6.47-.16-6.55.16-6.55.16l.7-1.33c1.56-2.96,1.95-3.51,1.95-26.91v-22.54h-5.07c-3.67,0-6.71.78-8.58,1.87-2.03,1.25-2.73,1.95-2.81,2.11,0-.08.23-1.64.23-4.76,0-2.81-.08-4.06-.08-4.06h40.33s-.08,1.25-.08,4.06c0,3.12.23,4.6.23,4.76Z"/>
      <path d="M1251.85,377.66c-15.91,0-24.73-11-24.73-27.38,0-6.79,1.25-29.72,24.8-29.72,15.91,0,24.73,11,24.73,27.38,0,6.79-1.25,29.72-24.8,29.72ZM1251.85,325.79c-8.35,0-16.15,5.77-16.15,23.63s7.57,23.01,16.22,23.01,16.15-5.77,16.15-23.63-7.57-23.01-16.22-23.01Z"/>
      <path d="M1319.63,330c-.08-.08-.62-.78-2.81-2.11-1.87-1.09-4.91-1.72-8.58-1.72h-10.3v20.44h8.42c3.67,0,6.71-.39,8.58-1.48,2.03-1.17,2.65-1.87,2.81-2.03,0,.08-.23,2.26-.23,6.01s.23,5.85.23,6.01c-.08-.08-.62-.78-2.81-2.11-1.87-1.09-4.92-1.48-8.58-1.48h-8.42c0,20.2.31,20.83,1.95,23.95l.7,1.33s-1.87-.16-6.47-.16-6.63.16-6.63.16l.7-1.33c1.56-2.96,1.95-3.51,1.95-26.91s-.31-23.01-1.95-26.13l-.7-1.33s1.72.08,5.93.08h26.05s-.08,1.25-.08,4.06c0,3.12.23,4.6.23,4.76Z"/>
      <path d="M595.95,457.65c-4.6,0-6.63.16-6.63.16l.7-1.33c1.64-3.04,1.95-3.59,1.95-26.91v-23.32c-.08.47-.78,3.35-1.79,5.69l-15.29,36.5-15.05-36.19c-1.01-2.26-1.87-5.54-1.95-5.85v23.95c0,22.7.23,22.93,1.95,26.13l.7,1.33s-1.95-.16-5.69-.16-5.46.16-5.46.16l.7-1.33c1.48-2.89,1.87-3.51,1.87-26.91s-.23-23.01-1.87-26.13l-.7-1.33s3.04.16,7.41.16c4.06,0,6.63-.23,6.63-.23l11.54,27.93c.62,1.79.94,2.5.94,2.65,0-.08.16-.94.94-2.73l11.7-27.69s2.89.16,6.79.16c4.13,0,6.86-.23,6.86-.23l-.7,1.33c-1.56,2.89-1.95,3.51-1.95,26.91s.31,23.01,1.95,26.13l.7,1.33s-1.64-.16-6.24-.16Z"/>
      <path d="M643.38,417.95l-8.35,14.98c0,19.19.31,20.51,1.95,23.56l.7,1.33s-1.87-.16-6.47-.16-6.63.16-6.63.16l.7-1.33c1.48-2.73,1.95-4.52,1.95-21.68l-9.13-17c-6.94-12.95-7.49-13.57-10.22-15.68,0,0,2.11.16,8.11.16s7.72-.16,7.72-.16c-1.25,1.09-1.79,2.42-1.79,3.67,0,2.18.39,3.12,4.21,10.53l5.85,11.39,5.77-11.47c3.74-7.41,3.9-8.27,3.9-10.45,0-1.25-.55-2.57-1.79-3.67,0,0,2.73.16,6.86.16,5.15,0,7.1-.16,7.1-.16-2.57,1.79-3.43,3.12-10.45,15.83Z"/>
      <path d="M694.23,411c-.08-.08-.62-.78-2.81-2.11-1.87-1.09-4.91-1.87-8.58-1.87h-5.07v23.32c0,22.7.31,23.01,1.95,26.13l.7,1.33s-1.87-.16-6.47-.16-6.55.16-6.55.16l.7-1.33c1.56-2.96,1.95-3.51,1.95-26.91v-22.54h-5.07c-3.67,0-6.71.78-8.58,1.87-2.03,1.25-2.73,1.95-2.81,2.11,0-.08.23-1.64.23-4.76,0-2.81-.08-4.06-.08-4.06h40.33s-.08,1.25-.08,4.06c0,3.12.23,4.6.23,4.76Z"/>
      <path d="M741.5,457.65c-4.6,0-6.55.16-6.55.16l.7-1.33c1.48-2.89,1.95-3.67,1.95-24.49h-25.82c0,20.91.31,21.45,1.95,24.49l.7,1.33s-1.87-.16-6.47-.16-6.55.16-6.55.16l.7-1.33c1.56-2.96,1.95-3.51,1.95-26.91s-.31-23.01-1.95-26.13l-.7-1.33s1.87.16,6.47.16,6.55-.16,6.55-.16l-.7,1.33c-1.48,2.81-1.95,3.59-1.95,22.78h25.82c0-19.11-.39-19.81-1.95-22.78l-.7-1.33s1.87.16,6.47.16,6.55-.16,6.55-.16l-.7,1.33c-1.56,2.96-1.95,3.51-1.95,26.91s.31,23.01,1.95,26.13l.7,1.33s-1.87-.16-6.47-.16Z"/>
      <path d="M766.85,457.65c-4.6,0-6.55.16-6.55.16l.7-1.33c1.56-2.96,1.95-3.51,1.95-26.91s-.31-23.01-1.95-26.13l-.7-1.33s1.79.16,6.47.16,6.55-.16,6.55-.16l-.7,1.33c-1.56,2.96-1.95,3.51-1.95,26.91s.31,23.01,1.95,26.13l.7,1.33s-1.87-.16-6.47-.16Z"/>
      <path d="M811.7,458.27c-25.2,0-27.54-18.41-27.54-27.61,0-18.57,10.3-29.02,28.08-29.02,9.83,0,13.73,2.26,13.73,2.26,0,0-.16,1.79-.16,5.07s.16,5.46.16,5.46c-3.35-4.84-6.08-7.64-13.65-7.64-7.96,0-19.74,3.35-19.74,23.48,0,12.48,3.98,22.86,19.42,22.86,7.8,0,10.61-2.96,13.96-7.8,0,0-.16,2.57-.16,5.93,0,2.96.16,4.76.16,4.76,0,0-5.3,2.26-14.27,2.26Z"/>
      <path d="M870.98,457.65c-4.29,0-7.41.16-7.41.16,1.01-.7,2.5-2.03,2.5-4.91,0-2.65-1.48-7.49-3.04-13.03l-1.4-4.91h-17.39l-1.4,4.91c-1.64,5.62-3.04,10.37-3.04,13.03,0,2.89,1.56,4.21,2.57,4.91,0,0-2.73-.16-6.94-.16-4.45,0-6.63.16-6.63.16,2.89-2.81,4.29-7.72,7.72-18.49l10.14-32.53c.31-.94.62-1.87.62-2.89s-.39-1.48-.55-1.64h14.74c0,.08-.47.55-.47,1.64,0,1.01.23,1.95.55,2.89l9.52,32.53c3.2,10.84,4.6,15.68,7.49,18.49,0,0-2.89-.16-7.57-.16ZM854.67,410.77c-.86-3.12-1.48-5.15-1.64-5.85-.16.55-.7,2.5-1.72,5.85l-5.62,19.03h14.51l-5.54-19.03Z"/>
      <path d="M914.42,455.39l-.16,2.34h-23.32c-4.21,0-6.01.08-6.01.08l.7-1.33c1.56-2.96,1.95-3.51,1.95-26.91s-.31-23.01-1.95-26.13l-.7-1.33s1.79.16,6.47.16,6.63-.16,6.63-.16l-.7,1.33c-1.56,2.96-1.95,3.67-1.95,26.21v23.09h6.08c9.67,0,10.92-2.26,13.81-6.47,0,0-.39,2.81-.86,9.13Z"/>
      <path d="M957.95,457.88c-3.35,0-6.4-.23-9.44-.23-4.29,0-6.4.16-6.4.16l.7-1.33c1.56-2.89,1.95-3.51,1.95-26.91s-.31-23.01-1.95-26.13l-.7-1.33s2.11.16,6.4.16c3.12,0,7.25-.23,10.61-.23,7.96,0,29.41.62,29.41,26.68,0,28.63-20.75,29.17-30.58,29.17ZM958.02,406.95c-3.04,0-5.38.23-5.38.23v45.55s2.65.23,5.15.23c10.3,0,22.23-2.11,22.23-23.32,0-20.05-11.08-22.7-22-22.7Z"/>
      <path d="M1032.2,455.39l-.16,2.34h-26.75c-4.21,0-6.01.08-6.01.08l.7-1.33c1.56-2.96,1.95-3.51,1.95-26.91s-.31-23.01-1.95-26.13l-.7-1.33s1.72.08,5.93.08h26.05s-.08,1.25-.08,4.06c0,3.12.23,4.6.23,4.76-.08-.08-.62-.78-2.81-2.11-1.87-1.09-4.91-1.72-8.58-1.72h-10.3v20.2h8.42c3.67,0,6.71-.39,8.58-1.48,2.03-1.17,2.65-1.87,2.81-2.03,0,.08-.23,2.34-.23,6.08s.23,5.85.23,6.01c-.08-.08-.62-.78-2.81-2.11-1.87-1.09-4.92-1.48-8.58-1.48h-8.42v20.36h9.52c9.67,0,10.92-2.26,13.81-6.47,0,0-.39,2.81-.86,9.13Z"/>
      <path d="M1079.39,411c-.08-.08-.62-.78-2.81-2.11-1.87-1.09-4.91-1.87-8.58-1.87h-5.07v23.32c0,22.7.31,23.01,1.95,26.13l.7,1.33s-1.87-.16-6.47-.16-6.55.16-6.55.16l.7-1.33c1.56-2.96,1.95-3.51,1.95-26.91v-22.54h-5.07c-3.67,0-6.71.78-8.58,1.87-2.03,1.25-2.73,1.95-2.81,2.11,0-.08.23-1.64.23-4.76,0-2.81-.08-4.06-.08-4.06h40.33s-.08,1.25-.08,4.06c0,3.12.23,4.6.23,4.76Z"/>
      <path d="M1119.48,455.39l-.16,2.34h-26.75c-4.21,0-6.01.08-6.01.08l.7-1.33c1.56-2.96,1.95-3.51,1.95-26.91s-.31-23.01-1.95-26.13l-.7-1.33s1.72.08,5.93.08h26.05s-.08,1.25-.08,4.06c0,3.12.23,4.6.23,4.76-.08-.08-.62-.78-2.81-2.11-1.87-1.09-4.91-1.72-8.58-1.72h-10.3v20.2h8.42c3.67,0,6.71-.39,8.58-1.48,2.03-1.17,2.65-1.87,2.81-2.03,0,.08-.23,2.34-.23,6.08s.23,5.85.23,6.01c-.08-.08-.62-.78-2.81-2.11-1.87-1.09-4.92-1.48-8.58-1.48h-8.42v20.36h9.52c9.67,0,10.92-2.26,13.81-6.47,0,0-.39,2.81-.86,9.13Z"/>
      <path d="M1157.23,458.27c-25.2,0-27.54-18.41-27.54-27.61,0-18.57,10.3-29.02,28.08-29.02,9.83,0,13.73,2.26,13.73,2.26,0,0-.16,1.79-.16,5.07s.16,5.46.16,5.46c-3.35-4.84-6.08-7.64-13.65-7.64-7.96,0-19.74,3.35-19.74,23.48,0,12.48,3.98,22.86,19.42,22.86,7.8,0,10.61-2.96,13.96-7.8,0,0-.16,2.57-.16,5.93,0,2.96.16,4.76.16,4.76,0,0-5.3,2.26-14.27,2.26Z"/>
      <path d="M1216.43,411c-.08-.08-.62-.78-2.81-2.11-1.87-1.09-4.91-1.87-8.58-1.87h-5.07v23.32c0,22.7.31,23.01,1.95,26.13l.7,1.33s-1.87-.16-6.47-.16-6.55.16-6.55.16l.7-1.33c1.56-2.96,1.95-3.51,1.95-26.91v-22.54h-5.07c-3.67,0-6.71.78-8.58,1.87-2.03,1.25-2.73,1.95-2.81,2.11,0-.08.23-1.64.23-4.76,0-2.81-.08-4.06-.08-4.06h40.33s-.08,1.25-.08,4.06c0,3.12.23,4.6.23,4.76Z"/>
      <path d="M1230.16,457.65c-4.6,0-6.55.16-6.55.16l.7-1.33c1.56-2.96,1.95-3.51,1.95-26.91s-.31-23.01-1.95-26.13l-.7-1.33s1.79.16,6.47.16,6.55-.16,6.55-.16l-.7,1.33c-1.56,2.96-1.95,3.51-1.95,26.91s.31,23.01,1.95,26.13l.7,1.33s-1.87-.16-6.47-.16Z"/>
      <path d="M1272.2,458.66c-15.91,0-24.73-11-24.73-27.38,0-6.79,1.25-29.72,24.8-29.72,15.91,0,24.73,11,24.73,27.38,0,6.79-1.25,29.72-24.8,29.72ZM1272.2,406.79c-8.35,0-16.15,5.77-16.15,23.63s7.57,23.01,16.22,23.01,16.15-5.77,16.15-23.63-7.57-23.01-16.22-23.01Z"/>
      <path d="M1353.48,403.44c-1.48,2.81-1.87,3.51-1.87,26.91l-.08,27.54s-1.79-.23-4.76-.23c-3.35,0-5.23.23-5.23.23l-23.09-43.92c-1.17-2.26-1.95-4.84-2.03-5.38v21.76c0,22.7.31,23.01,1.95,26.13l.7,1.33s-1.95-.16-5.77-.16-5.54.16-5.54.16l.7-1.33c1.48-2.81,2.03-3.51,2.03-26.91s-.31-23.01-1.95-26.13l-.7-1.33s1.64.16,6.63.16c3.98,0,5.93-.16,5.93-.16l22.93,43.6c1.79,3.28,2.26,5.54,2.26,5.54v-21.69c0-22.7-.31-23.01-1.95-26.13l-.7-1.33s1.79.16,5.62.16,5.62-.16,5.62-.16l-.7,1.33Z"/>
    </g>
  </g>
</svg>