<?xml version="1.0" encoding="UTF-8"?>
<svg id="Layer_1" data-name="Layer 1" xmlns="http://www.w3.org/2000/svg" viewBox="0 0 1944 935.77">
  <defs>
    <style>
      .cls-1 {
        fill: #e11ffa;
      }

      .cls-2 {
        fill: #53286e;
      }
    </style>
  </defs>
  <g>
    <path class="cls-2" d="M442.71,345.54l19.36-3.2c4.89-.81,8.65-4.76,9.22-9.68l9.97-86.53c.32-2.81-.44-5.64-2.13-7.91l-24.91-33.35c-1.91-2.56-4.84-4.17-8.02-4.42l-154.72-12.19c-2.14-.17-4.28.29-6.16,1.31l-24.57,13.31c-2.73,1.48-4.71,4.03-5.47,7.04l-66.06,261.86c-1.04,4.11.36,8.46,3.6,11.2l14.62,12.34c2,1.69,4.54,2.62,7.16,2.62h222.01c4.73,0,8.94-3,10.49-7.46l23.65-68.24c.76-2.19.81-4.55.16-6.77l-10.38-35.22c-.91-3.08-3.11-5.62-6.03-6.95l-14.6-6.69c-9.96-4.56-7.99-19.26,2.81-21.04ZM312.46,254.44l14.37-8.25c1.76-1.01,3.77-1.52,5.8-1.47l48.61,1.18c3.8.09,7.28,2.12,9.24,5.37l5.95,9.88c1.7,2.83,2.06,6.26.97,9.38l-10.22,29.29c-1.6,4.59-6.01,7.61-10.88,7.44l-64.74-2.31c-6.85-.24-11.84-6.58-10.48-13.3l6.04-29.78c.63-3.13,2.58-5.83,5.35-7.42ZM382.12,448.55l-89.76-3.7c-2.79-.11-5.43-1.28-7.4-3.25l-8.29-8.31c-2.66-2.66-3.78-6.49-2.99-10.16l8.01-37.33c1.1-5.12,5.62-8.77,10.85-8.77h80.56c3.94,0,7.59,2.09,9.58,5.5l17.66,30.21c1.77,3.03,2.01,6.73.62,9.96l-8.18,19.13c-1.81,4.24-6.06,6.92-10.66,6.73Z"/>
    <path class="cls-2" d="M542.96,335.5l-47.98,123.72c-1.07,2.76-.99,5.84.21,8.54l10.54,23.59c1.79,4,5.76,6.57,10.13,6.57h171.1c4.25,0,8.13-2.43,9.98-6.25l6.35-13.08c.7-1.45,1.08-3.04,1.11-4.65l2.27-125.71c.11-5.95-4.49-10.92-10.43-11.28l-142.28-8.52c-4.82-.29-9.27,2.57-11.01,7.07ZM646.98,453.32l-40.11,4.83c-3.3.4-6.61-.71-9.01-3.01l-3.5-3.36c-3.27-3.14-4.3-7.94-2.61-12.15l18.38-45.74c1.69-4.21,5.77-6.96,10.3-6.96h26.73c6.28,0,11.31,5.2,11.09,11.48l-1.51,44.27c-.19,5.47-4.33,9.99-9.76,10.64Z"/>
    <path class="cls-2" d="M866.9,324.22l-99.57,3.49c-4.09.14-7.77,2.52-9.57,6.2l-24.64,50.12c-.93,1.89-1.3,4.02-1.07,6.12l10.82,97.9c.62,5.62,5.37,9.88,11.03,9.88h134.34c4.47,0,8.5-2.68,10.23-6.8l36.09-85.81c1.64-3.9.92-8.39-1.85-11.58l-57.04-65.71c-2.2-2.53-5.42-3.93-8.77-3.82ZM843.96,452.63h-38.58c-4.45,0-8.47-2.66-10.21-6.75l-2.2-5.16c-.62-1.47-.93-3.05-.88-4.64l.83-31.23c.07-2.49.97-4.89,2.56-6.8l5.92-7.11c2.11-2.53,5.23-4,8.53-4h26c1.84,0,3.65.46,5.27,1.33l14.44,7.8c4.22,2.28,6.5,7.01,5.65,11.73l-6.42,35.7c-.95,5.29-5.55,9.14-10.92,9.14Z"/>
    <path class="cls-2" d="M947.61,481.47l11.05-26.64c1.53-3.69,4.93-6.27,8.9-6.76l73.95-9.1c6.45-.79,10.84-6.93,9.51-13.28l-2.95-14.14c-.08-.38-.18-.76-.3-1.13l-9.34-29.07c-.68-2.13-2-4-3.76-5.37l-71.28-55.32c-2.66-2.06-4.24-5.23-4.29-8.59l-.44-28.01c-.02-1.37.21-2.73.68-4.02l26.45-71.7c1.46-3.96,5.04-6.75,9.23-7.2l116.93-12.49c3.81-.41,7.57,1.18,9.93,4.21l9.01,11.55c2.07,2.66,2.83,6.11,2.05,9.39l-9.68,40.89c-1.09,4.61-5,8.02-9.72,8.49l-59.84,5.88c-4.55.45-8.36,3.64-9.6,8.04l-4.75,16.88c-1.52,5.41,1.24,11.11,6.44,13.26l30.78,12.74c2.33.96,4.26,2.69,5.48,4.9l57.52,104.38c.9,1.64,1.38,3.48,1.38,5.36v17.04c0,2.53-.86,4.98-2.44,6.95l-28.24,35.18c-2.11,2.62-5.29,4.15-8.66,4.15h-142.7c-3.03,0-5.94-1.24-8.03-3.44l-1.05-1.1c-3.04-3.18-3.91-7.85-2.22-11.92Z"/>
    <path class="cls-2" d="M1157.72,245.69l4.69-47.68c.56-5.68,5.34-10.01,11.05-10.01h154.73c7.03,0,12.29,6.46,10.87,13.35l-9.19,44.42c-1.08,5.2-5.68,8.91-10.99,8.85l-39.59-.42c-6.01-.06-10.98,4.67-11.21,10.67l-8.52,222.39c-.23,5.96-5.13,10.67-11.09,10.67h-47.41c-6.73,0-11.91-5.94-11-12.6l29.74-217.69c.95-6.99-4.76-13.08-11.8-12.57l-38.43,2.78c-6.86.5-12.52-5.31-11.85-12.16Z"/>
    <path class="cls-2" d="M1366.66,203.07l9.18-11.2c2.01-2.45,5.01-3.87,8.18-3.87h142.62c6.69,0,11.7,6.13,10.36,12.69l-7.51,36.89c-.66,3.25-2.81,6.01-5.81,7.43l-19.3,9.2c-1.77.84-3.74,1.18-5.69.97l-66.27-7.17c-5.34-.58-10.26,2.93-11.45,8.17l-10.08,44.31c-1.46,6.43,3.25,12.62,9.84,12.91l40.86,1.83c5.12.23,9.35,4.1,10.01,9.19l4.04,30.85c.8,6.14-3.81,11.65-10,11.94l-57.35,2.65c-5.12.24-9.34,4.11-10,9.2l-5.76,44.3c-.85,6.51,4.38,12.21,10.94,11.93l49.39-2.1c3.95-.17,7.66,1.88,9.62,5.3l5.41,9.44c1.6,2.8,1.84,6.17.65,9.17l-13.59,34.17c-1.6,4.03-5.49,6.67-9.83,6.67h-114.03c-2.22,0-4.38-.7-6.18-1.99l-16.09-11.59c-3.44-2.48-5.07-6.77-4.14-10.9l59.81-265.99c.36-1.61,1.09-3.11,2.14-4.38Z"/>
    <path class="cls-2" d="M1752.64,319.02l3.13-16.63c.46-2.45.04-4.98-1.18-7.15l-57.51-101.86c-1.88-3.32-5.39-5.38-9.21-5.38h-92.69c-3.08,0-6,1.34-8.01,3.67l-12.71,14.75c-.93,1.08-1.63,2.34-2.07,3.7l-84.96,267.11c-.87,2.74-.59,5.73.79,8.26l3.77,6.93c1.85,3.4,5.42,5.52,9.29,5.52h37.63c4.43,0,8.39-2.76,9.92-6.92l21.57-58.58c1.59-4.31,5.78-7.1,10.37-6.91l14.39.6c4.19.18,7.89,2.82,9.41,6.73l22.72,58.35c1.58,4.06,5.49,6.74,9.85,6.74h47.78c3.89,0,7.47-2.14,9.31-5.57l3.69-6.86c1.74-3.23,1.68-7.13-.16-10.31l-39.64-68.44c-3.52-6.08-.24-13.84,6.57-15.55l19.87-5c1.81-.46,3.47-1.39,4.81-2.69l60.25-58.87c1.55-1.52,2.6-3.47,3-5.61ZM1634.08,333.91l-23.33,2.37c-7.83.8-13.76-6.94-10.94-14.3l25.28-66.07c1.57-4.09,5.49-6.8,9.88-6.8h19.11c3.99,0,7.64,2.25,9.44,5.81l14.74,29.16c2.09,4.14,1.24,9.16-2.1,12.38l-35.8,34.54c-1.71,1.65-3.92,2.67-6.27,2.91Z"/>
    <path class="cls-1" d="M619.08,300.29l28.49-5.03c7.68-1.36,11.61-10.01,7.56-16.68l-34.93-57.66c-2.37-3.91-6.88-5.96-11.38-5.19l-25.69,4.44c-7.52,1.3-11.51,9.62-7.83,16.3l32.13,58.24c2.29,4.16,6.97,6.39,11.65,5.57Z"/>
    <path class="cls-1" d="M712.59,254.71h34.08c4.7,0,8.89-2.96,10.46-7.4l22.6-63.85c2.51-7.08-2.6-14.55-10.1-14.8l-69.86-2.27c-3.35-.11-6.57,1.3-8.76,3.84l-3.55,4.11c-2.41,2.79-3.28,6.59-2.32,10.15l16.74,62c1.31,4.84,5.7,8.21,10.72,8.21Z"/>
    <path class="cls-1" d="M804.23,263.65l38.06-38.45c3.57-3.61,9.14-4.33,13.52-1.76l21.21,12.47c6.95,4.09,7.36,14,.76,18.64l-44.38,31.24c-2.94,2.07-6.7,2.59-10.09,1.39l-14.89-5.26c-7.68-2.71-9.92-12.49-4.19-18.27Z"/>
  </g>
  <g>
    <path class="cls-2" d="M564.69,730.41l10.95-28c1.83-4.68,6.61-7.51,11.59-6.87l42.45,5.45c3.06.39,6.15-.53,8.5-2.53l17.97-15.35c2.23-1.9,3.6-4.62,3.81-7.54l7.42-103.89c.41-5.73,5.18-10.16,10.92-10.16h48.9c3.3,0,6.43,1.49,8.51,4.06l5,6.18c2.08,2.58,2.89,5.96,2.19,9.2l-29.43,135.97c-.57,2.65-2.11,4.99-4.31,6.57l-31.94,22.97c-1.96,1.41-4.34,2.13-6.76,2.05l-95.95-3.19c-7.55-.25-12.58-7.89-9.83-14.92Z"/>
    <path class="cls-2" d="M773.35,570.67l-21.57,130.14c-.52,3.16.36,6.39,2.42,8.84l29.54,35.1c2.08,2.47,5.14,3.9,8.37,3.9h88.48c2.8,0,5.5-1.07,7.53-3l30.85-29.24c1.77-1.68,2.93-3.9,3.29-6.31l20.58-136.01c1-6.62-4.12-12.58-10.82-12.58h-27.36c-5.34,0-9.89,3.85-10.79,9.11l-19.06,111.81c-.3,1.77-1.03,3.44-2.13,4.86l-16.1,20.81c-2.69,3.47-7.19,5-11.44,3.89l-26.59-6.98c-5.21-1.37-8.65-6.33-8.11-11.69l12.16-119.75c.65-6.45-4.41-12.05-10.89-12.05h-27.58c-5.35,0-9.92,3.87-10.8,9.16Z"/>
    <path class="cls-2" d="M985.91,570.39l-31.71,165.24c-1.3,6.75,3.88,13.01,10.75,13.01h35.58c5.3,0,9.84-3.8,10.77-9.01l29.61-165.24c1.2-6.71-3.96-12.88-10.77-12.88h-33.48c-5.25,0-9.76,3.73-10.75,8.88Z"/>
    <path class="cls-2" d="M1209.9,561.51h-69.09c-1.59,0-3.16.35-4.6,1.01l-53.85,24.93c-2.69,1.24-4.76,3.52-5.73,6.32l-25.05,71.62c-.91,2.59-.81,5.43.28,7.95l29.67,68.69c1.73,4.01,5.68,6.61,10.05,6.61h121.55c6.38,0,11.41-5.44,10.91-11.81l-1.54-19.48c-.46-5.88-5.5-10.33-11.39-10.07l-62.96,2.76c-4.37.19-8.43-2.24-10.34-6.17l-20.61-42.67c-1.81-3.75-1.34-8.2,1.22-11.49l27.34-35.08c2.04-2.62,5.15-4.17,8.47-4.22l47.29-.72c4.68-.07,8.8-3.11,10.24-7.56l8.55-26.3c2.3-7.07-2.97-14.33-10.41-14.33Z"/>
    <path class="cls-2" d="M1363.98,561.51h-100.42c-4.42,0-8.41,2.66-10.1,6.74l-10.77,25.87c-.66,1.57-.93,3.28-.81,4.98l9.88,139.37c.41,5.73,5.17,10.17,10.92,10.17h111.32c6.04,0,10.94-4.9,10.94-10.94v-18.06c0-6.39-5.45-11.42-11.81-10.91l-55.2,4.39c-5.54.44-10.54-3.34-11.61-8.8l-2.7-13.77c-1.14-5.79,2.52-11.44,8.28-12.77l35.66-8.24c5.75-1.33,9.41-6.98,8.28-12.77l-1.87-9.53c-.97-4.95-5.21-8.6-10.25-8.82l-31.61-1.42c-6.81-.31-11.68-6.69-10.19-13.34l3.52-15.64c1.16-5.17,5.87-8.77,11.16-8.53l51.79,2.3c7.38.33,12.96-6.61,11.06-13.75l-4.9-18.41c-1.28-4.79-5.62-8.13-10.58-8.13Z"/>
  </g>
</svg>