<?xml version="1.0" encoding="UTF-8"?>
<svg id="Layer_1" data-name="Layer 1" xmlns="http://www.w3.org/2000/svg" viewBox="0 0 1944 684">
  <defs>
    <style>
      .cls-1 {
        fill: #bc9bd3;
        stroke: #53286e;
      }

      .cls-1, .cls-2, .cls-3 {
        stroke-width: 3px;
      }

      .cls-1, .cls-3 {
        stroke-linejoin: round;
      }

      .cls-2 {
        fill: none;
        stroke-miterlimit: 10;
      }

      .cls-2, .cls-3 {
        stroke: #e11ffa;
      }

      .cls-3 {
        fill: #f9d7ff;
      }
    </style>
  </defs>
  <path class="cls-1" d="M442.46,344.09l19.67-3.25c4.86-.8,8.59-4.72,9.15-9.61l9.98-86.62c.32-2.79-.44-5.6-2.12-7.86l-24.95-33.41c-1.9-2.54-4.8-4.14-7.97-4.39l-154.78-12.2c-2.12-.17-4.25.28-6.12,1.3l-24.62,13.34c-2.71,1.47-4.68,4.01-5.44,6.99l-66.08,261.94c-1.03,4.08.36,8.4,3.58,11.12l14.68,12.39c1.99,1.68,4.51,2.6,7.11,2.6h222.09c4.7,0,8.88-2.98,10.41-7.41l23.67-68.32c.75-2.17.81-4.52.16-6.72l-10.4-35.28c-.9-3.06-3.08-5.58-5.98-6.91l-14.87-6.81c-9.89-4.53-7.94-19.12,2.79-20.9ZM312.43,252.97l14.42-8.28c1.75-1,3.74-1.51,5.76-1.46l48.68,1.18c3.77.09,7.23,2.1,9.18,5.34l5.99,9.95c1.69,2.81,2.04,6.22.96,9.31l-10.25,29.38c-1.59,4.56-5.97,7.56-10.8,7.38l-64.89-2.32c-6.8-.24-11.76-6.53-10.41-13.2l6.06-29.9c.63-3.1,2.56-5.79,5.31-7.37ZM382.17,447.06l-89.85-3.7c-2.77-.11-5.39-1.27-7.35-3.23l-8.34-8.36c-2.64-2.64-3.76-6.44-2.97-10.09l8.03-37.43c1.09-5.08,5.58-8.71,10.78-8.71h80.67c3.92,0,7.54,2.08,9.51,5.46l17.7,30.29c1.76,3.01,1.99,6.68.62,9.89l-8.21,19.21c-1.8,4.21-6.01,6.87-10.59,6.68Z"/>
  <path class="cls-1" d="M542.98,333.96l-48.01,123.81c-1.06,2.74-.99,5.8.21,8.48l10.57,23.67c1.77,3.97,5.72,6.53,10.06,6.53h171.2c4.22,0,8.07-2.41,9.91-6.21l6.38-13.14c.7-1.44,1.08-3.01,1.11-4.61l2.27-125.8c.11-5.91-4.46-10.85-10.36-11.2l-142.42-8.53c-4.78-.29-9.2,2.55-10.93,7.02ZM647.05,451.82l-40.21,4.85c-3.28.4-6.57-.7-8.95-2.99l-3.56-3.42c-3.25-3.11-4.27-7.89-2.6-12.06l18.42-45.84c1.68-4.18,5.73-6.91,10.23-6.91h26.87c6.23,0,11.23,5.17,11.01,11.4l-1.52,44.41c-.19,5.43-4.3,9.92-9.7,10.57Z"/>
  <path class="cls-1" d="M866.94,322.73l-99.66,3.5c-4.06.14-7.71,2.51-9.5,6.15l-24.67,50.18c-.92,1.88-1.29,3.99-1.06,6.07l10.83,97.99c.62,5.58,5.34,9.81,10.95,9.81h134.46c4.44,0,8.44-2.66,10.16-6.75l36.13-85.9c1.63-3.87.92-8.33-1.84-11.5l-57.09-65.77c-2.18-2.51-5.38-3.91-8.71-3.79ZM844.02,451.14h-38.69c-4.42,0-8.41-2.64-10.14-6.7l-2.22-5.22c-.62-1.46-.92-3.03-.88-4.61l.83-31.27c.07-2.47.96-4.85,2.55-6.76l5.96-7.16c2.09-2.52,5.2-3.97,8.47-3.97h26.06c1.83,0,3.63.46,5.24,1.32l14.5,7.83c4.19,2.26,6.45,6.96,5.61,11.65l-6.44,35.82c-.94,5.25-5.51,9.07-10.85,9.07Z"/>
  <path class="cls-1" d="M947.59,480.02l11.09-26.73c1.52-3.67,4.9-6.23,8.83-6.71l74.07-9.11c6.4-.79,10.76-6.88,9.44-13.19l-2.97-14.23c-.08-.38-.18-.75-.3-1.12l-9.35-29.1c-.68-2.11-1.98-3.97-3.74-5.34l-71.33-55.36c-2.64-2.05-4.21-5.19-4.26-8.53l-.44-28.06c-.02-1.36.21-2.71.68-3.99l26.47-71.76c1.45-3.93,5-6.7,9.17-7.14l117.02-12.5c3.79-.4,7.52,1.18,9.86,4.18l9.06,11.61c2.06,2.64,2.81,6.07,2.04,9.32l-9.7,40.98c-1.09,4.58-4.96,7.97-9.65,8.43l-59.94,5.89c-4.52.44-8.3,3.61-9.53,7.98l-4.78,17c-1.51,5.38,1.23,11.04,6.4,13.17l30.87,12.77c2.31.96,4.23,2.67,5.44,4.87l57.54,104.42c.9,1.63,1.37,3.46,1.37,5.32v17.09c0,2.51-.86,4.94-2.43,6.9l-28.28,35.23c-2.09,2.61-5.25,4.12-8.6,4.12h-142.77c-3.01,0-5.89-1.23-7.97-3.41l-1.11-1.16c-3.01-3.16-3.88-7.8-2.21-11.83Z"/>
  <path class="cls-1" d="M1157.66,244.74l4.78-48.63c.54-5.45,5.12-9.6,10.59-9.6h155.7c6.74,0,11.79,6.19,10.42,12.8l-9.38,45.34c-1.03,4.98-5.44,8.54-10.53,8.48l-40.41-.43c-5.76-.06-10.52,4.48-10.75,10.23l-8.55,223.27c-.22,5.71-4.91,10.23-10.63,10.23h-48.38c-6.45,0-11.42-5.69-10.54-12.08l29.89-218.77c.92-6.7-4.57-12.54-11.31-12.05l-39.54,2.86c-6.58.48-12-5.09-11.36-11.65Z"/>
  <path class="cls-1" d="M1366.67,201.57l9.15-11.17c2.02-2.47,5.04-3.9,8.23-3.9h142.51c6.73,0,11.77,6.17,10.43,12.76l-7.49,36.78c-.67,3.27-2.83,6.04-5.85,7.48l-19.25,9.18c-1.78.85-3.76,1.19-5.72.97l-66.2-7.16c-5.37-.58-10.32,2.95-11.52,8.22l-10.05,44.18c-1.47,6.47,3.27,12.69,9.9,12.99l40.73,1.82c5.16.23,9.4,4.13,10.08,9.25l4.03,30.72c.81,6.18-3.84,11.72-10.06,12.01l-57.22,2.65c-5.15.24-9.4,4.14-10.06,9.26l-5.74,44.17c-.85,6.55,4.41,12.28,11,12l49.27-2.09c3.97-.17,7.71,1.89,9.68,5.34l5.38,9.38c1.61,2.81,1.86,6.21.66,9.22l-13.56,34.1c-1.61,4.05-5.53,6.71-9.89,6.71h-113.96c-2.23,0-4.41-.7-6.22-2.01l-16.04-11.55c-3.46-2.49-5.1-6.81-4.16-10.97l59.79-265.93c.36-1.62,1.1-3.13,2.15-4.41Z"/>
  <path class="cls-1" d="M1752.64,317.51l3.12-16.59c.46-2.47.04-5.02-1.19-7.2l-57.48-101.81c-1.89-3.34-5.43-5.41-9.27-5.41h-92.62c-3.1,0-6.04,1.35-8.06,3.69l-12.68,14.71c-.94,1.09-1.64,2.35-2.08,3.72l-84.94,267.07c-.88,2.76-.59,5.76.79,8.31l3.73,6.87c1.86,3.43,5.45,5.56,9.35,5.56h37.55c4.46,0,8.44-2.78,9.99-6.96l21.54-58.49c1.6-4.34,5.81-7.15,10.43-6.95l14.3.6c4.22.18,7.94,2.83,9.47,6.77l22.69,58.26c1.59,4.09,5.53,6.78,9.92,6.78h47.7c3.92,0,7.52-2.15,9.37-5.6l3.65-6.8c1.75-3.25,1.69-7.18-.16-10.37l-39.57-68.34c-3.54-6.12-.24-13.93,6.61-15.65l19.77-4.97c1.82-.46,3.5-1.39,4.84-2.71l60.22-58.85c1.56-1.53,2.62-3.5,3.02-5.64ZM1634.06,332.42l-23.2,2.36c-7.88.8-13.84-6.99-11.01-14.39l25.22-65.93c1.58-4.12,5.53-6.84,9.94-6.84h19.03c4.01,0,7.69,2.26,9.5,5.84l14.7,29.09c2.1,4.17,1.25,9.22-2.11,12.46l-35.75,34.49c-1.72,1.66-3.94,2.69-6.31,2.93Z"/>
  <path class="cls-1" d="M619.02,298.81l28.66-5.06c7.63-1.35,11.53-9.94,7.51-16.56l-35.02-57.8c-2.35-3.88-6.84-5.92-11.3-5.15l-25.85,4.47c-7.46,1.29-11.43,9.55-7.77,16.18l32.21,58.39c2.28,4.13,6.92,6.35,11.57,5.53Z"/>
  <path class="cls-1" d="M712.53,253.21h34.2c4.67,0,8.83-2.94,10.39-7.34l22.65-64c2.49-7.03-2.58-14.45-10.03-14.69l-70.01-2.28c-3.33-.11-6.52,1.29-8.7,3.81l-3.61,4.17c-2.39,2.77-3.26,6.55-2.3,10.08l16.76,62.1c1.3,4.81,5.66,8.15,10.64,8.15Z"/>
  <path class="cls-1" d="M804.14,262.24l38.19-38.58c3.55-3.58,9.07-4.3,13.42-1.75l21.36,12.56c6.91,4.06,7.31,13.9.76,18.51l-44.51,31.33c-2.92,2.05-6.65,2.57-10.02,1.38l-15.04-5.31c-7.62-2.69-9.85-12.4-4.16-18.15Z"/>
  <g id="Guides">
    <g>
      <g>
        <polygon class="cls-3" points="1.22 257.74 8.18 186.95 186.6 186.95 172.79 253.66 113.27 253.03 103.94 496.88 33.13 496.88 66.44 253.03 1.22 257.74"/>
        <line class="cls-2" x1="0" y1="0" x2="0" y2="684"/>
        <line class="cls-2" x1="187.82" y1="0" x2="187.82" y2="684"/>
      </g>
      <g>
        <polygon class="cls-3" points="1757.4 257.74 1764.36 186.95 1942.78 186.95 1928.97 253.66 1869.45 253.03 1860.11 496.88 1789.3 496.88 1822.62 253.03 1757.4 257.74"/>
        <line class="cls-2" x1="1756.18" y1="0" x2="1756.18" y2="684"/>
        <line class="cls-2" x1="1944" y1="0" x2="1944" y2="684"/>
      </g>
    </g>
    <g>
      <g>
        <polygon class="cls-3" points="891.38 187.12 820.78 180.14 820.78 1.23 887.3 15.07 886.68 74.76 1129.85 84.12 1129.85 155.13 886.68 121.72 891.38 187.12"/>
        <line class="cls-2" x1="0" y1="187.12" x2="1942.16" y2="187.12"/>
        <line class="cls-2" x1="0" x2="1942.16"/>
      </g>
      <g>
        <polygon class="cls-3" points="891.38 684 820.78 677.02 820.78 498.11 887.3 511.95 886.68 571.64 1129.85 581 1129.85 652.01 886.68 618.6 891.38 684"/>
        <line class="cls-2" x1=".61" y1="684" x2="1942.78" y2="684"/>
        <line class="cls-2" x1=".61" y1="496.88" x2="1942.78" y2="496.88"/>
      </g>
    </g>
  </g>
</svg>