<?xml version="1.0" encoding="UTF-8"?>
<svg id="Layer_1" data-name="Layer 1" xmlns="http://www.w3.org/2000/svg" viewBox="0 0 2412.04 684">
  <defs>
    <style>
      .cls-1 {
        fill: #bc9bd3;
        stroke: #53286e;
      }

      .cls-1, .cls-2, .cls-3 {
        stroke-width: 3px;
      }

      .cls-1, .cls-3 {
        stroke-linejoin: round;
      }

      .cls-2 {
        fill: none;
        stroke-miterlimit: 10;
      }

      .cls-2, .cls-3 {
        stroke: #e11ffa;
      }

      .cls-3 {
        fill: #f9d7ff;
      }
    </style>
  </defs>
  <path class="cls-1" d="M909.68,344.23l20.68-3.41c4.74-.78,8.39-4.62,8.94-9.39l10.01-86.91c.31-2.73-.43-5.47-2.07-7.67l-25.08-33.58c-1.85-2.48-4.69-4.05-7.78-4.29l-154.97-12.21c-2.07-.16-4.15.28-5.98,1.27l-24.78,13.43c-2.65,1.43-4.57,3.91-5.31,6.83l-66.15,262.2c-1.01,3.99.35,8.21,3.49,10.86l14.87,12.56c1.94,1.64,4.4,2.54,6.95,2.54h222.37c4.59,0,8.67-2.91,10.17-7.24l23.76-68.56c.73-2.12.79-4.42.15-6.57l-10.45-35.47c-.88-2.99-3.01-5.45-5.85-6.75l-15.73-7.2c-9.66-4.42-7.75-18.68,2.73-20.41ZM780.37,253.02l14.58-8.37c1.71-.98,3.65-1.48,5.62-1.43l48.89,1.18c3.68.09,7.07,2.06,8.96,5.21l6.12,10.17c1.65,2.74,2,6.08.94,9.1l-10.35,29.67c-1.56,4.46-5.83,7.38-10.55,7.21l-65.38-2.34c-6.65-.24-11.49-6.38-10.17-12.9l6.14-30.31c.61-3.03,2.51-5.66,5.19-7.2ZM850.39,447.06l-90.12-3.71c-2.71-.11-5.27-1.24-7.18-3.16l-8.51-8.53c-2.58-2.58-3.67-6.29-2.9-9.86l8.1-37.77c1.06-4.96,5.45-8.51,10.53-8.51h81.02c3.83,0,7.36,2.03,9.3,5.33l17.84,30.52c1.72,2.94,1.95,6.53.61,9.66l-8.33,19.49c-1.76,4.11-5.88,6.71-10.34,6.53Z"/>
  <path class="cls-1" d="M1011.09,333.78l-48.12,124.08c-1.04,2.68-.96,5.66.21,8.28l10.68,23.91c1.73,3.88,5.58,6.38,9.83,6.38h171.52c4.12,0,7.88-2.35,9.69-6.06l6.47-13.33c.68-1.41,1.05-2.94,1.08-4.51l2.28-126.1c.1-5.77-4.36-10.6-10.12-10.94l-142.84-8.56c-4.67-.28-8.99,2.49-10.68,6.85ZM1115.31,451.79l-40.54,4.89c-3.2.39-6.41-.69-8.74-2.92l-3.77-3.62c-3.17-3.04-4.17-7.71-2.54-11.78l18.55-46.16c1.64-4.08,5.59-6.75,9.99-6.75h27.3c6.09,0,10.97,5.05,10.76,11.13l-1.53,44.89c-.18,5.31-4.2,9.69-9.47,10.32Z"/>
  <path class="cls-1" d="M1335.08,322.72l-99.88,3.51c-3.99.14-7.57,2.46-9.33,6.04l-24.75,50.35c-.91,1.85-1.27,3.91-1.04,5.96l10.86,98.23c.61,5.48,5.24,9.63,10.75,9.63h134.78c4.35,0,8.28-2.61,9.97-6.62l36.23-86.14c1.6-3.8.9-8.17-1.8-11.29l-57.24-65.94c-2.14-2.47-5.28-3.83-8.55-3.72ZM1312.24,451.14h-39c-4.34,0-8.25-2.59-9.95-6.58l-2.29-5.38c-.61-1.43-.9-2.97-.86-4.53l.84-31.39c.06-2.43.95-4.76,2.5-6.63l6.07-7.29c2.06-2.47,5.1-3.9,8.32-3.9h26.2c1.8,0,3.56.45,5.14,1.3l14.68,7.93c4.11,2.22,6.33,6.83,5.51,11.43l-6.49,36.13c-.93,5.15-5.41,8.9-10.65,8.9Z"/>
  <path class="cls-1" d="M1415.58,480.15l11.19-26.96c1.49-3.6,4.8-6.12,8.67-6.59l74.41-9.15c6.28-.77,10.56-6.75,9.27-12.95l-3.01-14.45c-.08-.37-.17-.74-.29-1.1l-9.37-29.17c-.67-2.08-1.94-3.9-3.67-5.24l-71.45-55.46c-2.59-2.01-4.13-5.09-4.18-8.38l-.44-28.2c-.02-1.33.21-2.66.67-3.91l26.53-71.91c1.42-3.86,4.91-6.58,9-7.01l117.25-12.52c3.72-.4,7.38,1.15,9.68,4.1l9.19,11.78c2.02,2.59,2.76,5.95,2,9.15l-9.76,41.22c-1.07,4.5-4.87,7.82-9.47,8.27l-60.23,5.92c-4.43.44-8.15,3.55-9.36,7.83l-4.87,17.3c-1.49,5.28,1.21,10.83,6.28,12.93l31.1,12.87c2.27.94,4.15,2.62,5.34,4.78l57.6,104.53c.88,1.6,1.34,3.4,1.34,5.22v17.21c0,2.46-.84,4.85-2.38,6.77l-28.38,35.37c-2.05,2.56-5.16,4.05-8.44,4.05h-142.95c-2.96,0-5.79-1.21-7.83-3.35l-1.26-1.32c-2.96-3.1-3.81-7.66-2.16-11.61Z"/>
  <path class="cls-1" d="M1625.73,244.53l4.74-48.26c.54-5.54,5.2-9.76,10.77-9.76h155.32c6.86,0,11.98,6.3,10.59,13.01l-9.31,44.98c-1.05,5.07-5.54,8.68-10.71,8.63l-40.09-.42c-5.86-.06-10.7,4.55-10.92,10.4l-8.54,222.93c-.22,5.81-5,10.4-10.81,10.4h-48c-6.56,0-11.61-5.79-10.72-12.28l29.83-218.35c.93-6.81-4.64-12.75-11.5-12.25l-39.11,2.83c-6.69.48-12.2-5.17-11.55-11.85Z"/>
  <path class="cls-1" d="M1834.74,201.53l9.07-11.07c2.05-2.51,5.13-3.96,8.37-3.96h142.21c6.84,0,11.97,6.27,10.6,12.98l-7.43,36.48c-.68,3.33-2.88,6.14-5.94,7.61l-19.13,9.12c-1.81.86-3.83,1.21-5.82.99l-65.99-7.14c-5.46-.59-10.49,3-11.71,8.36l-9.97,43.82c-1.5,6.58,3.33,12.91,10.07,13.21l40.37,1.8c5.24.23,9.56,4.2,10.24,9.4l3.98,30.38c.82,6.28-3.9,11.92-10.23,12.21l-56.88,2.63c-5.24.24-9.55,4.21-10.23,9.41l-5.69,43.81c-.87,6.66,4.48,12.49,11.19,12.2l48.96-2.08c4.04-.17,7.83,1.92,9.84,5.43l5.28,9.21c1.64,2.86,1.89,6.31.67,9.38l-13.48,33.91c-1.64,4.12-5.62,6.82-10.05,6.82h-113.78c-2.27,0-4.48-.71-6.32-2.04l-15.9-11.45c-3.52-2.53-5.18-6.92-4.23-11.15l59.76-265.78c.37-1.64,1.12-3.18,2.19-4.48Z"/>
  <path class="cls-1" d="M2220.69,317.45l3.1-16.47c.47-2.51.04-5.1-1.21-7.32l-57.4-101.66c-1.92-3.4-5.52-5.5-9.42-5.5h-92.43c-3.15,0-6.14,1.37-8.19,3.76l-12.6,14.62c-.95,1.11-1.67,2.39-2.11,3.78l-84.91,266.96c-.89,2.81-.6,5.86.8,8.45l3.65,6.71c1.89,3.48,5.54,5.65,9.5,5.65h37.32c4.53,0,8.59-2.83,10.15-7.08l21.45-58.25c1.62-4.41,5.91-7.27,10.6-7.07l14.05.59c4.29.18,8.07,2.88,9.63,6.88l22.61,58.04c1.62,4.16,5.62,6.89,10.08,6.89h47.47c3.98,0,7.64-2.19,9.53-5.7l3.56-6.61c1.78-3.31,1.71-7.3-.17-10.54l-39.41-68.05c-3.6-6.22-.25-14.16,6.72-15.91l19.5-4.9c1.86-.47,3.55-1.42,4.92-2.75l60.15-58.78c1.59-1.55,2.66-3.55,3.07-5.74ZM2102.04,332.43l-22.85,2.32c-8.01.81-14.08-7.1-11.2-14.63l25.08-65.54c1.6-4.19,5.62-6.95,10.1-6.95h18.8c4.08,0,7.82,2.3,9.66,5.94l14.59,28.87c2.14,4.23,1.27,9.37-2.14,12.66l-35.61,34.35c-1.75,1.68-4.01,2.73-6.42,2.98Z"/>
  <path class="cls-1" d="M1086.88,298.84l29.21-5.15c7.45-1.32,11.26-9.71,7.34-16.18l-35.3-58.27c-2.3-3.79-6.68-5.79-11.04-5.03l-26.38,4.56c-7.29,1.26-11.17,9.33-7.59,15.81l32.47,58.86c2.22,4.03,6.76,6.2,11.3,5.4Z"/>
  <path class="cls-1" d="M1180.38,253.21h34.57c4.56,0,8.63-2.87,10.15-7.17l22.83-64.49c2.43-6.87-2.52-14.12-9.8-14.35l-70.48-2.29c-3.25-.11-6.37,1.26-8.5,3.72l-3.77,4.37c-2.34,2.71-3.18,6.39-2.25,9.85l16.85,62.42c1.27,4.7,5.53,7.96,10.39,7.96Z"/>
  <path class="cls-1" d="M1271.9,262.53l38.61-39.01c3.47-3.5,8.86-4.2,13.11-1.71l21.87,12.86c6.75,3.97,7.14,13.58.74,18.08l-44.94,31.64c-2.85,2.01-6.5,2.51-9.78,1.35l-15.55-5.49c-7.45-2.63-9.62-12.11-4.07-17.73Z"/>
  <g>
    <path class="cls-1" d="M220.59,268.66l25.23-10.85c7.02-3.02,8.75-12.18,3.31-17.55l-40.28-39.77c-3.04-3-7.56-3.92-11.53-2.35l-27.02,10.71c-7.31,2.9-9.15,12.41-3.44,17.82l42.07,39.92c3.12,2.96,7.71,3.78,11.66,2.08Z"/>
    <path class="cls-1" d="M296.25,206.96l30.95-2.96c5-.48,9.01-4.35,9.65-9.33l8.06-61.94c.96-7.4-5.71-13.51-13-11.9l-67.39,14.9c-7.07,1.56-10.61,9.53-7.04,15.83l28.37,49.99c2.09,3.69,6.16,5.81,10.39,5.4Z"/>
    <path class="cls-1" d="M389.34,212.28l16.99,6.71c3.97,1.57,8.48.64,11.52-2.35l32.46-32.04c5.29-5.22,3.82-14.11-2.87-17.35l-26.63-12.9c-5.03-2.44-11.08-.62-13.94,4.17l-22.82,38.23c-3.4,5.7-.88,13.09,5.29,15.53Z"/>
    <path class="cls-1" d="M414.33,247.28l-75.09-6.86c-2.03-.19-4.07.21-5.89,1.14l-110.16,56.41c-2.3,1.18-4.09,3.14-5.06,5.52l-13.29,32.65c-.66,1.61-.91,3.36-.74,5.09l5.89,61.42c.23,2.43,1.29,4.71,2.99,6.47l112.74,116.29c1.68,1.74,3.9,2.85,6.3,3.18l53.33,7.16c3.29.44,6.6-.66,8.97-2.98l38.51-37.7c1.52-1.48,2.56-3.38,3-5.46l31.6-148.98c.16-.73.23-1.48.23-2.23v-46.27c0-3.31-1.52-6.43-4.12-8.47l-43.54-34.13c-1.63-1.28-3.6-2.06-5.66-2.25ZM259.77,371.29l-19.65-10.71c-3.46-1.89-5.61-5.51-5.61-9.45v-15.6c0-3.09,1.33-6.03,3.64-8.07l6.29-5.55c5-4.41,12.77-3.26,16.28,2.41l14.49,23.43c1.31,2.12,1.84,4.62,1.51,7.09l-1.13,8.43c-1,7.48-9.19,11.64-15.82,8.03ZM327.66,463.09l-20.46-9.07c-3.6-1.6-6.04-5.04-6.37-8.97l-1.36-16.63c-.48-5.93,3.93-11.12,9.85-11.61l4.54-.37c3.22-.26,6.4.94,8.64,3.27l17.67,18.39c2.06,2.14,3.14,5.05,2.99,8.02l-.4,7.68c-.39,7.54-8.22,12.35-15.12,9.29ZM353.54,380.61l-11.55-7.28c-2.12-1.34-3.7-3.37-4.49-5.75l-8.51-25.89c-.81-2.47-.7-5.14.3-7.53l2.72-6.48c2.29-5.44,8.53-8.03,13.99-5.8l13.17,5.37c1.54.63,2.91,1.6,4.01,2.85l10.49,11.89c2.42,2.74,3.28,6.53,2.29,10.05l-6.32,22.39c-1.95,6.92-10.02,10.02-16.1,6.18ZM415.26,464.52l-2.33,4.16c-4.03,7.2-14.34,7.37-18.61.31l-1.71-2.82c-.87-1.44-1.39-3.06-1.52-4.74l-1.14-14.84c-.25-3.29,1.01-6.51,3.44-8.74l5.39-4.97c4.02-3.71,10.19-3.81,14.34-.23l2.77,2.39c2.89,2.5,4.25,6.35,3.55,10.11l-2.98,16.07c-.21,1.16-.62,2.27-1.19,3.3ZM425.09,312.16c-3.75,7.06-13.62,7.72-18.27,1.21l-4.53-6.33-8.33-10.55c-2.68-3.4-3.07-8.07-.98-11.86l2.61-4.74c2.64-4.8,8.46-6.85,13.52-4.77l6.03,2.47c2,.82,3.71,2.23,4.9,4.04l8.26,12.53c2.17,3.29,2.37,7.5.52,10.98l-3.73,7.03Z"/>
  </g>
  <g id="Guides">
    <g>
      <polygon class="cls-3" points="468.88 257.74 475.83 186.95 654.25 186.95 640.45 253.66 580.93 253.03 571.59 496.88 500.78 496.88 534.09 253.03 468.88 257.74"/>
      <line class="cls-2" x1="467.65" y1="117.53" x2="467.65" y2="566.47"/>
      <line class="cls-2" x1="655.48" y1="117.53" x2="655.48" y2="566.47"/>
    </g>
  </g>
</svg>