<svg width="92" height="70" viewBox="0 0 92 70" fill="none" xmlns="http://www.w3.org/2000/svg">
<g clip-path="url(#clip0_1_4)">
<path d="M6.50837 37.5453C4.79192 36.4831 2.4844 36.9287 1.35304 38.5402C0.953028 39.1119 0.738098 39.7818 0.738098 40.4656V66.5023C0.738098 68.4333 2.40381 70 4.46057 70H18.1056C20.1594 70 21.8281 68.4333 21.8281 66.5023V50.8046C21.8281 48.4532 20.5714 46.2587 18.4818 44.9639L6.51136 37.5453" fill="black"/>
<path d="M53.7064 41.667L84.713 22.4492C88.1937 20.2912 90.2893 16.6337 90.2893 12.7128V2.33181C90.2922 1.04539 89.1818 0 87.8116 0C87.325 0 86.8504 0.134527 86.4474 0.383963L53.7094 20.6752C48.7391 23.7553 42.2942 23.7553 37.324 20.6752L4.58296 0.383963C3.43965 -0.322305 1.9023 -0.0252238 1.14706 1.04819C0.8784 1.42935 0.738098 1.87497 0.738098 2.33181V12.71C0.738098 16.6309 2.83367 20.2884 6.31434 22.4464L37.321 41.6642C42.2912 44.7443 48.7361 44.7443 53.7064 41.6642" fill="black"/>
<path d="M85.4917 37.5453C86.1006 37.1697 86.8111 36.968 87.5395 36.968C89.5932 36.968 91.2619 38.5346 91.2619 40.4657V66.5023C91.2619 68.4333 89.5962 70 87.5395 70H73.8944C71.8406 70 70.1719 68.4333 70.1719 66.5023V50.8046C70.1719 48.4532 71.4287 46.2587 73.5183 44.9639L85.4887 37.5453" fill="black"/>
</g>
<defs>
<clipPath id="clip0_1_4">
<rect width="90.5238" height="70" fill="white" transform="translate(0.738098)"/>
</clipPath>
</defs>
</svg>
