<?xml version="1.0" encoding="UTF-8"?>
<svg id="Layer_1" data-name="Layer 1" xmlns="http://www.w3.org/2000/svg" viewBox="0 0 684 684">
  <defs>
    <style>
      .cls-1 {
        fill: #e11ffa;
      }

      .cls-2 {
        fill: #53286e;
      }
    </style>
  </defs>
  <path class="cls-1" d="M216.87,276.31l30.94-13.31c7.15-3.08,8.92-12.42,3.37-17.89l-47.43-46.83c-3.1-3.06-7.71-4-11.75-2.39l-33.08,13.11c-7.45,2.95-9.33,12.64-3.51,18.16l49.56,47.03c3.18,3.02,7.86,3.85,11.89,2.12Z"/>
  <path class="cls-1" d="M302.45,206.25l36.77-3.51c5.1-.49,9.18-4.43,9.84-9.51l9.47-72.76c.98-7.54-5.82-13.77-13.25-12.13l-79.55,17.59c-7.21,1.59-10.82,9.71-7.17,16.13l33.31,58.68c2.14,3.76,6.28,5.92,10.59,5.51Z"/>
  <path class="cls-1" d="M407.25,211.66l21.29,8.4c4.04,1.6,8.64.66,11.74-2.4l38.52-38.01c5.39-5.32,3.9-14.38-2.92-17.69l-32.68-15.84c-5.12-2.48-11.29-.64-14.21,4.25l-27.12,45.45c-3.47,5.81-.9,13.35,5.39,15.83Z"/>
  <path class="cls-2" d="M437.22,251.83l-85.68-7.83c-2.07-.19-4.15.21-6,1.16l-125.37,64.21c-2.34,1.2-4.17,3.2-5.16,5.63l-15.32,37.64c-.67,1.64-.93,3.42-.76,5.18l6.73,70.22c.24,2.48,1.31,4.8,3.04,6.59l128.18,132.21c1.72,1.77,3.98,2.91,6.42,3.24l61.35,8.24c3.35.45,6.72-.67,9.14-3.04l44.26-43.34c1.54-1.51,2.61-3.45,3.06-5.56l35.86-169.08c.16-.75.24-1.51.24-2.28v-53.08c0-3.37-1.55-6.56-4.2-8.64l-50.01-39.21c-1.66-1.3-3.67-2.1-5.77-2.29ZM263.49,392.98l-24.42-13.31c-3.53-1.92-5.72-5.62-5.72-9.63v-18.92c0-3.15,1.35-6.14,3.71-8.23l8.61-7.6c5.1-4.5,13.02-3.33,16.59,2.46l17.38,28.11c1.33,2.16,1.88,4.71,1.54,7.23l-1.57,11.72c-1.02,7.63-9.37,11.86-16.13,8.18ZM340.38,496.74l-25.42-11.27c-3.67-1.63-6.16-5.13-6.49-9.14l-1.7-20.74c-.49-6.04,4-11.34,10.04-11.83l6.92-.57c3.29-.27,6.52.95,8.81,3.33l20.76,21.6c2.1,2.19,3.2,5.14,3.05,8.17l-.57,10.98c-.4,7.69-8.37,12.59-15.41,9.47ZM369.43,403.55l-14.82-9.34c-2.16-1.36-3.78-3.43-4.57-5.86l-9.91-30.15c-.83-2.51-.72-5.24.31-7.68l3.72-8.85c2.33-5.54,8.69-8.18,14.26-5.91l16.28,6.63c1.57.64,2.97,1.63,4.09,2.9l12.5,14.17c2.47,2.8,3.34,6.65,2.33,10.24l-7.77,27.54c-1.99,7.06-10.21,10.21-16.41,6.3ZM438.01,497.47l-3.75,6.7c-4.11,7.34-14.61,7.52-18.96.32l-3.16-5.22c-.89-1.47-1.42-3.12-1.55-4.83l-1.36-17.66c-.26-3.35,1.03-6.63,3.5-8.91l7.32-6.75c4.1-3.78,10.39-3.88,14.61-.24l4.48,3.87c2.95,2.55,4.33,6.47,3.62,10.3l-3.53,19.06c-.22,1.18-.63,2.32-1.22,3.36ZM448.12,326.94c-3.82,7.2-13.88,7.86-18.62,1.24l-6.26-8.76-9.93-12.58c-2.73-3.46-3.13-8.22-1-12.09l3.86-7.01c2.69-4.89,8.62-6.98,13.78-4.86l8.17,3.35c2.04.84,3.78,2.27,5,4.11l9.95,15.1c2.21,3.35,2.41,7.64.53,11.19l-5.48,10.31Z"/>
</svg>