<?xml version="1.0" encoding="UTF-8"?>
<svg id="Layer_1" data-name="Layer 1" xmlns="http://www.w3.org/2000/svg" viewBox="0 0 1944 684">
  <defs>
    <style>
      .cls-1 {
        fill: #e11ffa;
      }

      .cls-2 {
        fill: #53286e;
      }
    </style>
  </defs>
  <path class="cls-2" d="M441.69,344.22l20.61-3.4c4.75-.78,8.41-4.62,8.96-9.41l10.01-86.89c.31-2.73-.43-5.48-2.07-7.69l-25.07-33.57c-1.86-2.49-4.7-4.06-7.79-4.3l-154.96-12.21c-2.08-.16-4.16.28-5.99,1.27l-24.77,13.42c-2.65,1.44-4.58,3.92-5.32,6.84l-66.14,262.18c-1.01,4,.35,8.22,3.5,10.88l14.86,12.54c1.95,1.64,4.41,2.54,6.96,2.54h222.35c4.6,0,8.69-2.91,10.19-7.25l23.75-68.55c.74-2.12.79-4.42.15-6.58l-10.45-35.46c-.88-2.99-3.02-5.46-5.86-6.76l-15.67-7.17c-9.68-4.43-7.77-18.71,2.73-20.45ZM312.34,253.02l14.57-8.37c1.71-.98,3.66-1.48,5.63-1.43l48.87,1.18c3.69.09,7.08,2.06,8.98,5.22l6.11,10.15c1.65,2.75,2,6.09.94,9.11l-10.34,29.65c-1.56,4.47-5.84,7.39-10.57,7.23l-65.35-2.34c-6.66-.24-11.51-6.39-10.19-12.92l6.14-30.28c.62-3.04,2.51-5.66,5.2-7.21ZM382.34,447.06l-90.1-3.71c-2.71-.11-5.28-1.24-7.19-3.16l-8.5-8.52c-2.58-2.59-3.67-6.3-2.91-9.88l8.09-37.75c1.07-4.97,5.46-8.52,10.55-8.52h80.99c3.83,0,7.38,2.03,9.31,5.34l17.83,30.51c1.72,2.95,1.95,6.54.61,9.68l-8.32,19.47c-1.76,4.12-5.89,6.72-10.36,6.54Z"/>
  <path class="cls-2" d="M543.04,333.79l-48.11,124.06c-1.04,2.68-.97,5.67.21,8.3l10.68,23.9c1.74,3.88,5.59,6.39,9.85,6.39h171.5c4.13,0,7.9-2.36,9.7-6.07l6.47-13.32c.68-1.41,1.05-2.95,1.08-4.52l2.28-126.08c.1-5.78-4.37-10.62-10.14-10.96l-142.81-8.56c-4.68-.28-9.01,2.5-10.7,6.87ZM647.25,451.8l-40.52,4.88c-3.21.39-6.43-.69-8.76-2.93l-3.76-3.6c-3.18-3.05-4.18-7.72-2.54-11.8l18.54-46.14c1.64-4.09,5.6-6.76,10.01-6.76h27.27c6.1,0,10.99,5.06,10.78,11.15l-1.53,44.86c-.18,5.31-4.21,9.7-9.49,10.34Z"/>
  <path class="cls-2" d="M867.05,322.72l-99.91,3.51c-3.97.14-7.55,2.45-9.3,6.02l-24.76,50.37c-.91,1.84-1.27,3.9-1.04,5.94l10.86,98.27c.6,5.46,5.22,9.6,10.72,9.6h134.83c4.34,0,8.26-2.6,9.94-6.6l36.24-86.18c1.59-3.79.9-8.15-1.8-11.25l-57.26-65.97c-2.14-2.46-5.27-3.82-8.52-3.71ZM844.22,451.14h-39.05c-4.32,0-8.23-2.58-9.92-6.56l-2.3-5.41c-.61-1.42-.9-2.96-.86-4.51l.84-31.41c.06-2.42.94-4.75,2.49-6.61l6.08-7.31c2.05-2.46,5.09-3.89,8.29-3.89h26.23c1.79,0,3.55.45,5.13,1.3l14.7,7.94c4.1,2.21,6.31,6.81,5.49,11.4l-6.5,36.18c-.92,5.14-5.39,8.88-10.62,8.88Z"/>
  <path class="cls-2" d="M947.53,480.17l11.2-26.99c1.49-3.59,4.79-6.1,8.64-6.57l74.46-9.16c6.26-.77,10.53-6.73,9.24-12.91l-3.02-14.49c-.08-.37-.17-.74-.29-1.1l-9.38-29.18c-.66-2.07-1.94-3.89-3.66-5.22l-71.47-55.47c-2.59-2.01-4.12-5.08-4.17-8.35l-.44-28.22c-.02-1.33.2-2.65.67-3.9l26.54-71.94c1.42-3.85,4.9-6.56,8.97-6.99l117.29-12.53c3.71-.4,7.35,1.15,9.65,4.09l9.21,11.8c2.01,2.58,2.75,5.94,1.99,9.12l-9.77,41.25c-1.06,4.48-4.86,7.8-9.44,8.25l-60.27,5.92c-4.42.43-8.12,3.53-9.33,7.81l-4.89,17.35c-1.48,5.26,1.21,10.8,6.26,12.89l31.14,12.88c2.26.94,4.14,2.62,5.32,4.76l57.61,104.55c.88,1.59,1.34,3.38,1.34,5.21v17.23c0,2.45-.84,4.84-2.37,6.75l-28.4,35.39c-2.05,2.55-5.14,4.04-8.41,4.04h-142.98c-2.95,0-5.77-1.21-7.8-3.34l-1.29-1.35c-2.95-3.09-3.8-7.63-2.16-11.58Z"/>
  <path class="cls-2" d="M1157.68,244.56l4.75-48.33c.54-5.52,5.19-9.73,10.73-9.73h155.39c6.84,0,11.95,6.28,10.56,12.97l-9.32,45.05c-1.05,5.05-5.52,8.65-10.68,8.6l-40.15-.42c-5.84-.06-10.67,4.54-10.89,10.37l-8.54,222.99c-.22,5.79-4.98,10.37-10.78,10.37h-48.07c-6.54,0-11.57-5.77-10.69-12.25l29.84-218.43c.93-6.79-4.63-12.71-11.46-12.22l-39.19,2.83c-6.67.48-12.17-5.16-11.51-11.81Z"/>
  <path class="cls-2" d="M1366.67,201.57l9.15-11.17c2.02-2.47,5.04-3.9,8.23-3.9h142.52c6.73,0,11.76,6.17,10.42,12.76l-7.49,36.79c-.67,3.27-2.83,6.04-5.84,7.48l-19.26,9.18c-1.78.85-3.76,1.19-5.72.97l-66.2-7.16c-5.37-.58-10.32,2.95-11.51,8.21l-10.05,44.19c-1.47,6.47,3.27,12.69,9.89,12.98l40.74,1.82c5.15.23,9.4,4.13,10.07,9.24l4.03,30.73c.81,6.17-3.83,11.72-10.05,12l-57.23,2.65c-5.15.24-9.39,4.14-10.05,9.25l-5.74,44.18c-.85,6.54,4.4,12.28,11,12l49.29-2.09c3.97-.17,7.7,1.89,9.68,5.33l5.38,9.39c1.61,2.81,1.85,6.21.66,9.22l-13.56,34.11c-1.61,4.05-5.53,6.71-9.88,6.71h-113.97c-2.23,0-4.4-.7-6.21-2l-16.05-11.55c-3.46-2.49-5.1-6.8-4.16-10.96l59.79-265.94c.36-1.62,1.1-3.12,2.15-4.41Z"/>
  <path class="cls-2" d="M1752.64,317.51l3.12-16.59c.46-2.46.04-5.01-1.19-7.2l-57.49-101.82c-1.89-3.34-5.42-5.41-9.26-5.41h-92.62c-3.09,0-6.04,1.35-8.06,3.69l-12.68,14.72c-.94,1.09-1.64,2.35-2.08,3.72l-84.95,267.07c-.88,2.76-.59,5.76.79,8.3l3.74,6.87c1.86,3.42,5.45,5.56,9.34,5.56h37.56c4.46,0,8.44-2.78,9.98-6.96l21.54-58.5c1.6-4.34,5.81-7.14,10.42-6.95l14.31.6c4.22.18,7.93,2.83,9.46,6.77l22.7,58.27c1.59,4.08,5.53,6.77,9.91,6.77h47.7c3.91,0,7.51-2.15,9.37-5.6l3.66-6.8c1.75-3.25,1.69-7.17-.16-10.37l-39.58-68.35c-3.54-6.11-.24-13.92,6.61-15.64l19.78-4.98c1.82-.46,3.49-1.39,4.84-2.71l60.22-58.85c1.56-1.53,2.61-3.49,3.02-5.64ZM1634.06,332.42l-23.21,2.36c-7.88.8-13.84-6.98-11.01-14.38l25.23-65.94c1.57-4.12,5.53-6.83,9.93-6.83h19.04c4.01,0,7.68,2.26,9.49,5.84l14.7,29.09c2.1,4.16,1.25,9.21-2.11,12.45l-35.75,34.49c-1.72,1.66-3.94,2.69-6.31,2.93Z"/>
  <path class="cls-1" d="M618.86,298.84l29.16-5.15c7.47-1.32,11.28-9.73,7.35-16.21l-35.28-58.23c-2.3-3.8-6.69-5.8-11.06-5.04l-26.34,4.55c-7.3,1.26-11.19,9.35-7.61,15.84l32.45,58.83c2.23,4.04,6.78,6.21,11.32,5.41Z"/>
  <path class="cls-1" d="M712.35,253.21h34.54c4.57,0,8.64-2.88,10.17-7.19l22.81-64.46c2.44-6.88-2.52-14.14-9.82-14.38l-70.44-2.29c-3.25-.11-6.38,1.26-8.51,3.73l-3.76,4.35c-2.34,2.71-3.19,6.41-2.25,9.86l16.84,62.4c1.27,4.71,5.54,7.97,10.41,7.97Z"/>
  <path class="cls-1" d="M803.88,262.51l38.58-38.98c3.47-3.51,8.88-4.21,13.13-1.71l21.83,12.84c6.76,3.97,7.15,13.6.74,18.12l-44.91,31.61c-2.86,2.01-6.51,2.51-9.8,1.35l-15.51-5.48c-7.46-2.63-9.64-12.14-4.07-17.76Z"/>
</svg>