<?xml version="1.0" encoding="UTF-8"?>
<svg id="Layer_1" data-name="Layer 1" xmlns="http://www.w3.org/2000/svg" viewBox="0 0 2412.04 684">
  <defs>
    <style>
      .cls-1 {
        fill: #e11ffa;
      }

      .cls-2 {
        fill: #53286e;
      }
    </style>
  </defs>
  <path class="cls-2" d="M909.27,344.29l21.18-3.5c4.69-.77,8.3-4.56,8.84-9.28l10.03-87.05c.31-2.7-.42-5.41-2.05-7.59l-25.14-33.67c-1.83-2.46-4.64-4-7.69-4.24l-155.06-12.22c-2.05-.16-4.1.27-5.91,1.25l-24.86,13.47c-2.62,1.42-4.52,3.87-5.25,6.75l-67.8,268.77,23.02,19.43h226.39c4.53,0,8.57-2.87,10.06-7.16l23.8-68.68c.73-2.1.78-4.37.15-6.49l-10.48-35.56c-.87-2.95-2.98-5.39-5.78-6.67l-16.15-7.4c-9.55-4.37-7.66-18.47,2.7-20.18ZM780.32,253.05l14.66-8.42c1.69-.97,3.61-1.46,5.56-1.41l48.99,1.18c3.64.09,6.98,2.03,8.86,5.15l6.19,10.28c1.63,2.71,1.97,6.01.93,8.99l-10.4,29.81c-1.54,4.41-5.77,7.3-10.43,7.13l-65.62-2.35c-6.57-.23-11.36-6.31-10.05-12.75l6.19-30.51c.61-3,2.48-5.59,5.13-7.11ZM850.48,447.07l-90.26-3.72c-2.67-.11-5.21-1.22-7.1-3.12l-8.59-8.61c-2.55-2.55-3.63-6.22-2.87-9.75l8.14-37.93c1.05-4.91,5.39-8.41,10.41-8.41h81.19c3.78,0,7.28,2.01,9.19,5.27l17.91,30.64c1.7,2.91,1.92,6.45.6,9.55l-8.39,19.63c-1.74,4.07-5.81,6.63-10.22,6.45Z"/>
  <path class="cls-2" d="M1011.12,333.7l-48.17,124.21c-1.03,2.65-.95,5.6.21,8.19l10.74,24.04c1.71,3.83,5.52,6.3,9.72,6.3h171.68c4.08,0,7.79-2.33,9.57-5.99l6.52-13.43c.68-1.39,1.04-2.91,1.07-4.46l2.28-126.25c.1-5.7-4.31-10.47-10-10.82l-143.05-8.57c-4.62-.28-8.89,2.46-10.56,6.78ZM1115.41,451.78l-40.71,4.91c-3.17.38-6.34-.68-8.64-2.89l-3.88-3.72c-3.13-3.01-4.13-7.62-2.51-11.65l18.61-46.32c1.62-4.03,5.53-6.67,9.87-6.67h27.51c6.02,0,10.84,4.99,10.64,11.01l-1.54,45.13c-.18,5.24-4.15,9.57-9.36,10.2Z"/>
  <path class="cls-2" d="M1335.16,322.72l-100.07,3.51c-3.92.14-7.45,2.42-9.18,5.94l-24.82,50.49c-.89,1.82-1.25,3.85-1.03,5.86l10.88,98.43c.6,5.39,5.15,9.47,10.58,9.47h135.05c4.28,0,8.15-2.57,9.81-6.52l36.31-86.35c1.57-3.74.88-8.04-1.77-11.1l-57.37-66.08c-2.11-2.43-5.2-3.77-8.41-3.66ZM1312.38,451.14h-39.26c-4.27,0-8.12-2.55-9.79-6.47l-2.35-5.53c-.6-1.41-.89-2.92-.85-4.45l.84-31.49c.06-2.39.93-4.69,2.46-6.52l6.16-7.4c2.02-2.43,5.02-3.83,8.18-3.83h26.33c1.77,0,3.5.44,5.06,1.28l14.83,8.01c4.05,2.19,6.23,6.72,5.42,11.25l-6.54,36.4c-.91,5.07-5.32,8.76-10.47,8.76Z"/>
  <path class="cls-2" d="M1415.53,480.25l11.27-27.16c1.47-3.54,4.73-6.02,8.53-6.48l74.7-9.19c6.18-.76,10.39-6.64,9.12-12.74l-3.06-14.65c-.08-.37-.17-.73-.29-1.08l-9.39-29.23c-.66-2.04-1.91-3.84-3.61-5.15l-71.56-55.54c-2.55-1.98-4.06-5.01-4.12-8.24l-.45-28.32c-.02-1.31.2-2.62.66-3.85l26.58-72.05c1.4-3.8,4.83-6.47,8.85-6.9l117.46-12.55c3.66-.39,7.26,1.13,9.52,4.03l9.3,11.92c1.99,2.55,2.71,5.86,1.97,9l-9.81,41.42c-1.05,4.42-4.79,7.69-9.32,8.14l-60.47,5.94c-4.36.43-8.02,3.49-9.2,7.71l-4.95,17.57c-1.46,5.19,1.19,10.66,6.18,12.72l31.3,12.95c2.23.92,4.09,2.58,5.25,4.7l57.65,104.63c.87,1.57,1.32,3.34,1.32,5.14v17.32c0,2.42-.83,4.77-2.34,6.66l-28.47,35.48c-2.02,2.52-5.07,3.98-8.3,3.98h-143.11c-2.91,0-5.69-1.19-7.7-3.3l-1.39-1.46c-2.91-3.05-3.75-7.53-2.13-11.43Z"/>
  <polygon class="cls-2" points="1624.47 257.3 1631.43 186.5 1809.85 186.5 1796.04 253.21 1736.52 252.58 1727.18 496.43 1656.37 496.43 1689.69 252.58 1624.47 257.3"/>
  <polygon class="cls-2" points="1833.12 203.52 1847.06 186.5 2007.63 186.5 1996.48 241.24 1969.72 254 1891.11 245.49 1876.13 311.33 1938.5 314.12 1945.19 365.17 1867.5 368.76 1858.97 434.31 1927.35 431.4 1938.5 450.85 1920.38 496.43 1795.76 496.43 1771.23 478.77 1833.12 203.52"/>
  <path class="cls-2" d="M2220.06,320.8l4.46-23.7-62.45-110.6h-103.71l-17.28,20.05-86.98,273.46,8.92,16.41h51.3l26.78-72.74,28.99,1.22,27.86,71.52h61.33l9.48-17.63-49.62-85.69,36.24-9.12,64.68-63.2ZM2105.76,332.05l-44.05,4.47,34.01-88.9h32.9l21.19,41.93-44.05,42.49Z"/>
  <path class="cls-1" d="M1086.8,298.86l29.47-5.2c7.37-1.3,11.13-9.6,7.25-15.99l-35.44-58.49c-2.27-3.75-6.6-5.72-10.92-4.97l-26.63,4.6c-7.21,1.25-11.04,9.22-7.51,15.63l32.6,59.09c2.2,3.98,6.69,6.13,11.17,5.34Z"/>
  <path class="cls-1" d="M1180.29,253.21h34.76c4.51,0,8.53-2.84,10.03-7.09l22.91-64.74c2.4-6.79-2.49-13.95-9.69-14.19l-70.71-2.3c-3.21-.1-6.3,1.25-8.4,3.68l-3.86,4.46c-2.31,2.67-3.14,6.32-2.22,9.73l16.89,62.57c1.25,4.64,5.47,7.87,10.27,7.87Z"/>
  <path class="cls-1" d="M1271.76,262.67l38.82-39.22c3.43-3.46,8.76-4.15,12.96-1.69l22.12,13.01c6.67,3.92,7.06,13.42.73,17.88l-45.15,31.78c-2.82,1.98-6.42,2.48-9.67,1.33l-15.79-5.58c-7.36-2.6-9.51-11.97-4.02-17.52Z"/>
  <g>
    <path class="cls-1" d="M220.64,268.64l25.05-10.77c7.08-3.05,8.83-12.29,3.34-17.71l-40.14-39.63c-3.06-3.03-7.63-3.96-11.63-2.37l-26.82,10.63c-7.38,2.92-9.23,12.52-3.48,17.98l41.91,39.77c3.15,2.99,7.78,3.81,11.77,2.1Z"/>
    <path class="cls-1" d="M296.31,206.96l30.82-2.94c5.04-.48,9.08-4.39,9.74-9.41l8.03-61.73c.97-7.47-5.76-13.63-13.12-12.01l-67.13,14.85c-7.14,1.58-10.71,9.61-7.1,15.97l28.28,49.83c2.11,3.72,6.22,5.86,10.48,5.45Z"/>
    <path class="cls-1" d="M389.44,212.32l16.83,6.64c4,1.58,8.56.65,11.62-2.37l32.32-31.9c5.34-5.27,3.86-14.24-2.89-17.51l-26.43-12.81c-5.07-2.46-11.18-.63-14.06,4.21l-22.72,38.06c-3.43,5.75-.89,13.21,5.34,15.67Z"/>
    <path class="cls-2" d="M414.3,247.28l-75.03-6.85c-2.05-.19-4.11.21-5.94,1.15l-110.1,56.38c-2.32,1.19-4.13,3.16-5.11,5.57l-13.26,32.6c-.66,1.62-.92,3.39-.75,5.13l5.88,61.36c.24,2.45,1.3,4.75,3.01,6.52l112.7,116.25c1.7,1.75,3.94,2.88,6.35,3.2l53.25,7.15c3.32.45,6.65-.66,9.05-3l38.45-37.65c1.53-1.5,2.58-3.41,3.03-5.51l31.59-148.94c.16-.74.24-1.5.24-2.25v-46.21c0-3.34-1.53-6.49-4.16-8.55l-43.48-34.08c-1.65-1.29-3.63-2.08-5.71-2.27ZM259.65,371.22l-19.48-10.62c-3.49-1.9-5.66-5.56-5.66-9.54v-15.5c0-3.12,1.34-6.08,3.67-8.14l6.18-5.45c5.05-4.45,12.89-3.29,16.43,2.43l14.41,23.31c1.32,2.14,1.86,4.66,1.53,7.15l-1.11,8.26c-1.01,7.55-9.28,11.74-15.96,8.1ZM327.53,463.03l-20.28-8.99c-3.63-1.61-6.1-5.08-6.42-9.04l-1.35-16.47c-.49-5.98,3.96-11.22,9.94-11.71l4.4-.36c3.25-.27,6.45.95,8.72,3.3l17.61,18.32c2.08,2.16,3.17,5.09,3.02,8.09l-.39,7.51c-.39,7.61-8.29,12.46-15.25,9.37ZM353.43,380.54l-11.42-7.2c-2.14-1.35-3.74-3.4-4.53-5.8l-8.49-25.83c-.82-2.49-.71-5.19.3-7.6l2.67-6.36c2.31-5.49,8.6-8.1,14.11-5.85l13.06,5.32c1.55.63,2.94,1.62,4.05,2.87l10.44,11.84c2.44,2.77,3.31,6.58,2.31,10.13l-6.27,22.22c-1.97,6.99-10.11,10.11-16.25,6.24ZM415.25,464.54l-2.24,4.01c-4.07,7.27-14.46,7.44-18.77.31l-1.61-2.66c-.88-1.45-1.4-3.09-1.53-4.78l-1.14-14.77c-.26-3.32,1.02-6.57,3.47-8.82l5.29-4.88c4.06-3.74,10.28-3.84,14.46-.23l2.67,2.3c2.92,2.52,4.28,6.4,3.58,10.2l-2.96,16c-.22,1.17-.62,2.29-1.2,3.33ZM425.16,312.02c-3.78,7.12-13.74,7.79-18.43,1.22l-4.44-6.21-8.29-10.51c-2.7-3.43-3.09-8.14-.99-11.96l2.54-4.61c2.66-4.84,8.53-6.91,13.64-4.81l5.92,2.43c2.02.83,3.74,2.25,4.95,4.07l8.22,12.46c2.19,3.32,2.39,7.56.52,11.07l-3.63,6.84Z"/>
  </g>
</svg>