<?xml version="1.0" encoding="UTF-8"?>
<svg id="Layer_1" data-name="Layer 1" xmlns="http://www.w3.org/2000/svg" viewBox="0 0 2520 864">
  <defs>
    <style>
      .cls-1 {
        fill: #e11ffa;
      }

      .cls-2 {
        fill: #53286e;
      }
    </style>
  </defs>
  <g>
    <path class="cls-2" d="M1017.77,344.86l20.81-3.43c4.73-.78,8.37-4.6,8.92-9.36l10.02-86.95c.31-2.72-.42-5.46-2.06-7.65l-25.09-33.6c-1.85-2.48-4.68-4.04-7.76-4.28l-154.99-12.22c-2.07-.16-4.14.28-5.96,1.26l-24.8,13.44c-2.64,1.43-4.56,3.9-5.29,6.81l-66.15,262.23c-1,3.98.35,8.18,3.48,10.83l14.9,12.58c1.94,1.64,4.39,2.53,6.92,2.53h222.4c4.57,0,8.65-2.9,10.14-7.22l23.77-68.59c.73-2.11.79-4.4.15-6.55l-10.46-35.5c-.88-2.98-3-5.43-5.83-6.73l-15.84-7.25c-9.63-4.41-7.73-18.63,2.72-20.35ZM888.55,253.65l14.6-8.39c1.7-.98,3.64-1.47,5.61-1.42l48.91,1.18c3.67.09,7.04,2.05,8.94,5.2l6.14,10.2c1.65,2.73,1.99,6.06.94,9.07l-10.36,29.7c-1.55,4.44-5.82,7.36-10.52,7.19l-65.44-2.34c-6.63-.24-11.45-6.36-10.14-12.86l6.16-30.36c.61-3.02,2.5-5.64,5.17-7.18ZM958.61,447.68l-90.16-3.72c-2.7-.11-5.25-1.23-7.16-3.15l-8.53-8.55c-2.57-2.58-3.66-6.28-2.89-9.83l8.11-37.81c1.06-4.95,5.44-8.48,10.5-8.48h81.06c3.81,0,7.34,2.02,9.27,5.32l17.86,30.55c1.72,2.94,1.94,6.51.6,9.64l-8.35,19.53c-1.75,4.1-5.86,6.69-10.31,6.51Z"/>
    <path class="cls-2" d="M1119.29,334.38l-48.13,124.11c-1.04,2.67-.96,5.64.21,8.26l10.7,23.94c1.73,3.87,5.57,6.36,9.8,6.36h171.57c4.11,0,7.86-2.35,9.66-6.05l6.48-13.36c.68-1.4,1.05-2.94,1.08-4.49l2.28-126.14c.1-5.75-4.35-10.57-10.09-10.91l-142.9-8.56c-4.66-.28-8.96,2.48-10.65,6.83ZM1223.53,452.41l-40.59,4.89c-3.2.39-6.39-.68-8.72-2.91l-3.8-3.64c-3.16-3.03-4.16-7.68-2.53-11.75l18.57-46.2c1.63-4.07,5.58-6.73,9.96-6.73h27.36c6.07,0,10.94,5.03,10.73,11.1l-1.54,44.95c-.18,5.29-4.19,9.66-9.44,10.29Z"/>
    <path class="cls-2" d="M1443.31,323.34l-99.97,3.51c-3.95.14-7.51,2.44-9.26,5.99l-24.78,50.41c-.9,1.83-1.26,3.88-1.04,5.91l10.87,98.33c.6,5.44,5.2,9.56,10.67,9.56h134.91c4.32,0,8.22-2.59,9.9-6.57l36.27-86.24c1.59-3.77.89-8.11-1.79-11.2l-57.3-66.01c-2.13-2.45-5.24-3.8-8.48-3.69ZM1420.5,451.76h-39.12c-4.3,0-8.19-2.57-9.88-6.53l-2.32-5.45c-.6-1.42-.9-2.95-.85-4.49l.84-31.43c.06-2.41.94-4.73,2.48-6.58l6.11-7.34c2.04-2.45,5.06-3.87,8.25-3.87h26.26c1.78,0,3.53.44,5.1,1.29l14.75,7.97c4.08,2.2,6.28,6.78,5.46,11.34l-6.52,36.26c-.92,5.11-5.37,8.84-10.57,8.84Z"/>
    <path class="cls-2" d="M1523.75,480.82l11.23-27.05c1.48-3.57,4.77-6.07,8.6-6.54l74.55-9.17c6.23-.77,10.48-6.7,9.2-12.85l-3.03-14.55c-.08-.37-.17-.73-.29-1.09l-9.38-29.2c-.66-2.06-1.93-3.87-3.64-5.2l-71.5-55.5c-2.57-2-4.1-5.05-4.15-8.31l-.44-28.25c-.02-1.32.2-2.64.66-3.88l26.55-71.98c1.41-3.83,4.87-6.53,8.93-6.96l117.35-12.53c3.69-.39,7.32,1.14,9.6,4.07l9.24,11.84c2,2.57,2.73,5.91,1.98,9.08l-9.78,41.31c-1.06,4.46-4.83,7.76-9.4,8.21l-60.34,5.93c-4.4.43-8.09,3.52-9.28,7.77l-4.91,17.43c-1.47,5.24,1.2,10.75,6.23,12.83l31.2,12.91c2.25.93,4.12,2.6,5.3,4.74l57.62,104.58c.87,1.59,1.33,3.37,1.33,5.18v17.26c0,2.44-.83,4.81-2.36,6.72l-28.43,35.42c-2.04,2.54-5.12,4.02-8.37,4.02h-143.03c-2.93,0-5.74-1.2-7.77-3.32l-1.32-1.39c-2.94-3.08-3.78-7.6-2.15-11.52Z"/>
    <path class="cls-2" d="M1733.91,245.24l4.76-48.44c.54-5.5,5.16-9.69,10.68-9.69h155.5c6.8,0,11.89,6.25,10.51,12.91l-9.34,45.15c-1.04,5.03-5.49,8.61-10.63,8.56l-40.24-.43c-5.81-.06-10.62,4.51-10.84,10.32l-8.54,223.09c-.22,5.76-4.96,10.32-10.73,10.32h-48.18c-6.51,0-11.52-5.74-10.64-12.19l29.86-218.55c.92-6.76-4.61-12.65-11.41-12.16l-39.31,2.84c-6.64.48-12.11-5.13-11.46-11.76Z"/>
    <path class="cls-2" d="M1942.92,202.17l9.11-11.12c2.04-2.49,5.09-3.93,8.3-3.93h142.35c6.79,0,11.87,6.22,10.52,12.88l-7.46,36.62c-.67,3.3-2.86,6.1-5.9,7.55l-19.18,9.15c-1.8.86-3.8,1.2-5.78.98l-66.09-7.15c-5.42-.59-10.41,2.98-11.62,8.29l-10.01,43.98c-1.48,6.53,3.3,12.81,9.99,13.11l40.54,1.81c5.2.23,9.49,4.17,10.16,9.33l4,30.54c.82,6.23-3.87,11.83-10.15,12.12l-57.04,2.64c-5.2.24-9.48,4.18-10.15,9.34l-5.72,43.98c-.86,6.61,4.44,12.39,11.1,12.11l49.11-2.09c4.01-.17,7.77,1.91,9.77,5.39l5.33,9.29c1.63,2.84,1.87,6.26.66,9.31l-13.52,34c-1.62,4.09-5.58,6.77-9.98,6.77h-113.87c-2.25,0-4.45-.71-6.27-2.02l-15.97-11.5c-3.49-2.51-5.14-6.87-4.2-11.07l59.78-265.85c.37-1.63,1.11-3.15,2.17-4.45Z"/>
    <path class="cls-2" d="M2328.88,318.12l3.12-16.57c.46-2.47.04-5.03-1.19-7.22l-57.47-101.79c-1.89-3.35-5.44-5.42-9.29-5.42h-92.59c-3.1,0-6.05,1.35-8.08,3.7l-12.67,14.7c-.94,1.09-1.65,2.36-2.08,3.73l-84.94,267.06c-.88,2.77-.59,5.77.79,8.32l3.72,6.85c1.87,3.43,5.46,5.57,9.37,5.57h37.52c4.47,0,8.46-2.79,10.01-6.98l21.53-58.46c1.6-4.35,5.83-7.16,10.45-6.97l14.26.6c4.23.18,7.95,2.84,9.49,6.78l22.68,58.23c1.6,4.1,5.54,6.79,9.94,6.79h47.67c3.93,0,7.53-2.16,9.39-5.61l3.64-6.77c1.75-3.26,1.69-7.19-.16-10.39l-39.55-68.3c-3.55-6.13-.24-13.96,6.63-15.69l19.74-4.96c1.83-.46,3.5-1.4,4.85-2.71l60.21-58.84c1.57-1.53,2.62-3.5,3.03-5.65ZM2210.29,333.04l-23.15,2.35c-7.9.8-13.87-7-11.04-14.42l25.2-65.88c1.58-4.13,5.54-6.85,9.96-6.85h19c4.02,0,7.7,2.26,9.52,5.85l14.68,29.06c2.11,4.17,1.25,9.24-2.11,12.48l-35.73,34.47c-1.72,1.66-3.95,2.69-6.33,2.93Z"/>
    <path class="cls-1" d="M1195.01,299.47l29.43-5.19c7.38-1.3,11.15-9.62,7.27-16.03l-35.41-58.46c-2.27-3.75-6.61-5.73-10.94-4.98l-26.59,4.6c-7.22,1.25-11.06,9.24-7.52,15.66l32.58,59.05c2.2,3.99,6.7,6.14,11.19,5.35Z"/>
    <path class="cls-1" d="M1288.5,253.83h34.72c4.52,0,8.55-2.85,10.05-7.11l22.9-64.7c2.41-6.8-2.49-13.98-9.71-14.22l-70.67-2.3c-3.22-.1-6.31,1.25-8.41,3.69l-3.84,4.44c-2.32,2.68-3.15,6.33-2.23,9.75l16.89,62.55c1.26,4.65,5.48,7.88,10.3,7.88Z"/>
    <path class="cls-1" d="M1379.98,263.27l38.78-39.18c3.43-3.47,8.78-4.16,12.98-1.69l22.08,12.99c6.68,3.93,7.07,13.45.73,17.91l-45.11,31.76c-2.82,1.99-6.43,2.49-9.69,1.33l-15.75-5.56c-7.37-2.6-9.53-12-4.03-17.56Z"/>
  </g>
  <g>
    <path class="cls-2" d="M767.31,660.46l7.88-19.56c1.85-4.59,6.55-7.35,11.46-6.74l34.69,4.32c2.98.37,5.99-.51,8.3-2.42l14.31-11.86c2.28-1.89,3.7-4.64,3.92-7.59l6.17-83.72c.42-5.7,5.16-10.1,10.87-10.1h39.79c3.23,0,6.3,1.44,8.37,3.92l3.2,3.84c2.17,2.6,3,6.05,2.27,9.36l-24.8,111.15c-.59,2.66-2.16,5.01-4.4,6.57l-26.39,18.42c-1.93,1.35-4.24,2.03-6.59,1.96l-79.3-2.56c-7.57-.24-12.59-7.95-9.76-14.97Z"/>
    <path class="cls-2" d="M955.02,531.85l-18.04,105.6c-.55,3.22.37,6.51,2.51,8.98l24.22,27.92c2.07,2.39,5.08,3.76,8.24,3.76h74.56c2.73,0,5.37-1.03,7.38-2.88l25.51-23.45c1.82-1.67,3.01-3.91,3.39-6.35l17.17-110.07c1.03-6.61-4.08-12.58-10.77-12.58h-20.31c-5.29,0-9.82,3.8-10.74,9.02l-15.96,90.84c-.32,1.8-1.08,3.48-2.21,4.91l-12.87,16.14c-2.67,3.35-7.06,4.83-11.21,3.77l-20.53-5.23c-5.25-1.34-8.72-6.32-8.15-11.7l10.02-95.72c.67-6.44-4.37-12.04-10.84-12.04h-20.6c-5.31,0-9.85,3.83-10.75,9.07Z"/>
    <path class="cls-2" d="M1149.69,531.57l-26.41,133.52c-1.33,6.74,3.82,13.02,10.7,13.02h27.27c5.26,0,9.77-3.75,10.72-8.92l24.66-133.52c1.24-6.7-3.91-12.88-10.72-12.88h-25.51c-5.21,0-9.69,3.68-10.7,8.79Z"/>
    <path class="cls-2" d="M1357.73,522.78h-56.58c-1.54,0-3.06.33-4.47.96l-45.19,20.3c-2.7,1.21-4.79,3.47-5.79,6.25l-20.89,57.95c-.95,2.65-.85,5.56.3,8.13l24.61,55.28c1.75,3.93,5.65,6.47,9.96,6.47h101.38c6.37,0,11.38-5.44,10.87-11.79l-1.02-12.47c-.48-5.84-5.48-10.26-11.33-10.01l-51.52,2.19c-4.3.18-8.31-2.18-10.22-6.03l-16.58-33.31c-1.9-3.81-1.4-8.37,1.26-11.69l22.14-27.57c2.03-2.53,5.09-4.03,8.34-4.07l38.79-.57c4.63-.07,8.71-3.05,10.18-7.44l6.1-18.21c2.37-7.06-2.89-14.37-10.34-14.37Z"/>
    <path class="cls-2" d="M1502.02,522.78h-83.86c-4.36,0-8.3,2.6-10.02,6.6l-8.59,20.01c-.69,1.61-.98,3.35-.85,5.09l8.3,113.51c.42,5.7,5.16,10.11,10.87,10.11h92.3c6.02,0,10.9-4.88,10.9-10.9v-11.23c0-6.35-5.41-11.36-11.74-10.87l-44.31,3.42c-5.49.42-10.43-3.31-11.53-8.71l-1.64-8.08c-1.18-5.82,2.51-11.5,8.3-12.8l27.33-6.12c5.79-1.3,9.48-6.99,8.3-12.8l-.95-4.71c-.99-4.91-5.21-8.51-10.21-8.73l-23.93-1.04c-6.82-.3-11.69-6.71-10.15-13.36l2.17-9.38c1.19-5.11,5.85-8.65,11.09-8.43l40.91,1.76c7.38.32,12.94-6.65,10.98-13.78l-3.17-11.55c-1.3-4.74-5.6-8.02-10.51-8.02Z"/>
  </g>
  <g>
    <path class="cls-1" d="M257.38,337.02l37.37-16.07c7.08-3.05,8.83-12.29,3.34-17.71l-55.17-54.47c-3.06-3.03-7.63-3.96-11.63-2.37l-39.89,15.81c-7.38,2.92-9.23,12.52-3.48,17.98l57.69,54.74c3.15,2.99,7.78,3.81,11.77,2.1Z"/>
    <path class="cls-1" d="M353.01,258.4l43.14-4.12c5.04-.48,9.08-4.39,9.74-9.41l10.99-84.46c.97-7.47-5.76-13.63-13.12-12.01l-92.77,20.52c-7.14,1.58-10.71,9.61-7.1,15.97l38.63,68.07c2.11,3.72,6.22,5.86,10.48,5.45Z"/>
    <path class="cls-1" d="M469.56,263.76l26.19,10.34c4,1.58,8.56.65,11.62-2.37l45.14-44.55c5.34-5.27,3.86-14.24-2.89-17.51l-39.5-19.14c-5.07-2.46-11.18-.63-14.06,4.21l-31.84,53.35c-3.43,5.75-.89,13.21,5.34,15.67Z"/>
    <path class="cls-2" d="M505.02,309.32l-96.62-8.83c-2.05-.19-4.11.21-5.94,1.15l-141.02,72.22c-2.32,1.19-4.13,3.16-5.11,5.57l-17.46,42.89c-.66,1.62-.92,3.39-.75,5.13l7.61,79.36c.24,2.45,1.3,4.75,3.01,6.52l144,148.54c1.7,1.75,3.94,2.88,6.35,3.2l69.76,9.37c3.32.45,6.65-.66,9.05-3l50.28-49.24c1.53-1.5,2.58-3.41,3.03-5.51l40.22-189.61c.16-.74.24-1.5.24-2.25v-60.18c0-3.34-1.53-6.49-4.16-8.55l-56.79-44.52c-1.65-1.29-3.63-2.08-5.71-2.27ZM312.16,468.09l-29.83-16.26c-3.49-1.9-5.66-5.56-5.66-9.54v-22.63c0-3.12,1.34-6.08,3.67-8.14l11.35-10.02c5.05-4.45,12.89-3.29,16.43,2.43l20.57,33.28c1.32,2.14,1.86,4.66,1.53,7.15l-2.09,15.63c-1.01,7.55-9.28,11.74-15.96,8.1ZM398.21,583.96l-31.06-13.78c-3.63-1.61-6.1-5.08-6.42-9.04l-2.08-25.43c-.49-5.98,3.96-11.22,9.94-11.71l9.81-.8c3.25-.27,6.45.95,8.72,3.3l24.1,25.07c2.08,2.16,3.17,5.09,3.02,8.09l-.77,14.93c-.39,7.61-8.29,12.46-15.25,9.37ZM430.41,479.93l-18.59-11.72c-2.14-1.35-3.74-3.4-4.53-5.8l-11.4-34.69c-.82-2.49-.71-5.19.3-7.6l4.9-11.67c2.31-5.49,8.6-8.1,14.11-5.85l19.79,8.07c1.55.63,2.94,1.62,4.05,2.87l14.7,16.67c2.44,2.77,3.31,6.58,2.31,10.13l-9.41,33.34c-1.97,6.99-10.11,10.11-16.25,6.24ZM505.6,583.75l-5.49,9.81c-4.07,7.27-14.46,7.44-18.77.31l-4.95-8.2c-.88-1.45-1.4-3.09-1.53-4.78l-1.6-20.77c-.26-3.32,1.02-6.57,3.47-8.82l9.61-8.86c4.06-3.74,10.28-3.84,14.46-.23l6.57,5.68c2.92,2.52,4.28,6.4,3.58,10.2l-4.14,22.34c-.22,1.17-.62,2.29-1.2,3.33ZM515.74,395.28c-3.78,7.12-13.74,7.79-18.43,1.22l-8.33-11.64-11.68-14.79c-2.7-3.43-3.09-8.14-.99-11.96l5.37-9.76c2.66-4.84,8.53-6.91,13.64-4.81l10.7,4.39c2.02.83,3.74,2.25,4.95,4.07l11.83,17.94c2.19,3.32,2.39,7.56.52,11.07l-7.58,14.28Z"/>
  </g>
</svg>